<svg width="12" height="17" viewBox="0 0 12 17" fill="none" xmlns="http://www.w3.org/2000/svg">
<path d="M0.713578 5.496C0.769578 3.998 1.25958 2.843 2.18358 2.031C3.10758 1.219 4.36058 0.812999 5.94258 0.812999C6.99258 0.812999 7.88858 0.994999 8.63058 1.359C9.38658 1.723 9.95358 2.22 10.3316 2.85C10.7236 3.48 10.9196 4.187 10.9196 4.971C10.9196 5.895 10.6886 6.651 10.2266 7.239C9.76458 7.813 9.22558 8.205 8.60958 8.415V8.499C9.40758 8.765 10.0376 9.206 10.4996 9.822C10.9616 10.438 11.1926 11.229 11.1926 12.195C11.1926 13.063 10.9896 13.833 10.5836 14.505C10.1916 15.163 9.61058 15.681 8.84058 16.059C8.08458 16.437 7.18158 16.626 6.13158 16.626C4.45158 16.626 3.10758 16.213 2.09958 15.387C1.10558 14.561 0.580578 13.315 0.524578 11.649H4.01058C4.02458 12.265 4.19958 12.755 4.53558 13.119C4.87158 13.469 5.36158 13.644 6.00558 13.644C6.55158 13.644 6.97158 13.49 7.26558 13.182C7.57358 12.86 7.72758 12.44 7.72758 11.922C7.72758 11.25 7.51058 10.767 7.07658 10.473C6.65658 10.165 5.97758 10.011 5.03958 10.011H4.36758V7.092H5.03958C5.75358 7.092 6.32758 6.973 6.76158 6.735C7.20958 6.483 7.43358 6.042 7.43358 5.412C7.43358 4.908 7.29358 4.516 7.01358 4.236C6.73358 3.956 6.34858 3.816 5.85858 3.816C5.32658 3.816 4.92758 3.977 4.66158 4.299C4.40958 4.621 4.26258 5.02 4.22058 5.496H0.713578Z" fill="#233751"/>
</svg>
