<svg width="301" height="61" viewBox="0 0 301 61" fill="none" xmlns="http://www.w3.org/2000/svg">
<rect x="1" y="1.26953" width="299" height="59" rx="29.5" fill="url(#paint0_linear_165_2946)"/>
<rect x="1" y="1.26953" width="299" height="59" rx="29.5" stroke="url(#paint1_linear_165_2946)"/>
<g filter="url(#filter0_d_165_2946)">
<path d="M79.6695 32.9635H75.4235L74.3675 36.7695H70.9135L75.4235 21.9415H79.8235L84.4435 36.7695H80.8135L79.6695 32.9635ZM75.9075 30.4555H79.1855L78.2615 27.3095C77.9975 26.4295 77.7335 25.3295 77.5135 24.4495H77.4695C77.2495 25.3295 77.0295 26.4515 76.7875 27.3095L75.9075 30.4555ZM92.8603 21.1495H96.2043V33.5575C96.2043 34.7675 96.2483 36.0435 96.2923 36.7695H93.3223L93.1903 35.2075H93.1243C92.4643 36.3955 91.1443 37.0115 89.7583 37.0115C87.2063 37.0115 85.1603 34.8335 85.1603 31.4895C85.1383 27.8595 87.4043 25.7475 89.9783 25.7475C91.3203 25.7475 92.3323 26.2315 92.8163 26.9575H92.8603V21.1495ZM92.8603 31.9735V30.5655C92.8603 30.3895 92.8603 30.1475 92.8163 29.9495C92.6183 29.0695 91.8923 28.3215 90.8583 28.3215C89.3183 28.3215 88.5483 29.6855 88.5483 31.3795C88.5483 33.2055 89.4503 34.3495 90.8363 34.3495C91.8043 34.3495 92.5963 33.6895 92.7943 32.7435C92.8383 32.5015 92.8603 32.2375 92.8603 31.9735ZM105.746 21.1495H109.09V33.5575C109.09 34.7675 109.134 36.0435 109.178 36.7695H106.208L106.076 35.2075H106.01C105.35 36.3955 104.03 37.0115 102.644 37.0115C100.092 37.0115 98.0457 34.8335 98.0457 31.4895C98.0237 27.8595 100.29 25.7475 102.864 25.7475C104.206 25.7475 105.218 26.2315 105.702 26.9575H105.746V21.1495ZM105.746 31.9735V30.5655C105.746 30.3895 105.746 30.1475 105.702 29.9495C105.504 29.0695 104.778 28.3215 103.744 28.3215C102.204 28.3215 101.434 29.6855 101.434 31.3795C101.434 33.2055 102.336 34.3495 103.722 34.3495C104.69 34.3495 105.482 33.6895 105.68 32.7435C105.724 32.5015 105.746 32.2375 105.746 31.9735ZM117.907 36.7695V24.7575H113.903V21.9415H125.299V24.7575H121.251V36.7695H117.907ZM130.113 25.7475C133.391 25.7475 135.591 28.0135 135.591 31.2695C135.591 35.2075 132.797 37.0115 129.915 37.0115C126.769 37.0115 124.349 34.9435 124.349 31.4675C124.349 27.9695 126.637 25.7475 130.113 25.7475ZM130.003 28.1455C128.419 28.1455 127.803 29.7955 127.803 31.3795C127.803 33.2275 128.573 34.6135 130.003 34.6135C131.323 34.6135 132.137 33.3155 132.137 31.3575C132.137 29.7735 131.521 28.1455 130.003 28.1455ZM154.561 36.7695L154.319 31.0935C154.253 29.3115 154.187 27.1555 154.187 24.9995H154.143C153.659 26.8915 153.043 29.0035 152.471 30.7415L150.667 36.5275H148.049L146.465 30.8075C145.981 29.0475 145.497 26.9355 145.123 24.9995H145.079C145.013 27.0015 144.925 29.2895 144.837 31.1375L144.551 36.7695H141.449L142.395 21.9415H146.861L148.313 26.8915C148.797 28.6075 149.237 30.4555 149.567 32.1935H149.655C150.051 30.4775 150.557 28.5195 151.063 26.8695L152.625 21.9415H157.025L157.817 36.7695H154.561ZM158.845 26.0115H162.563L164.169 31.3135C164.345 31.9295 164.565 32.7435 164.697 33.3155H164.785C164.917 32.7215 165.093 31.9295 165.247 31.2915L166.589 26.0115H170.153L167.645 33.0955C166.105 37.3855 165.071 39.0795 163.861 40.1575C162.717 41.1695 161.485 41.5435 160.649 41.6315L159.923 38.8155C160.341 38.7275 160.869 38.5295 161.375 38.2435C161.881 37.9795 162.453 37.4295 162.761 36.9015C162.871 36.7255 162.937 36.5495 162.937 36.4175C162.937 36.2855 162.915 36.1315 162.805 35.8675L158.845 26.0115ZM182.222 21.6775C186.776 21.6775 189.262 25.0875 189.262 29.2015C189.262 34.0855 186.336 37.0115 181.98 37.0115C177.602 37.0115 175.006 33.6895 175.006 29.4435C175.006 24.9995 177.866 21.6775 182.222 21.6775ZM182.156 24.3395C179.868 24.3395 178.548 26.4955 178.548 29.3775C178.548 32.3035 179.912 34.3495 182.156 34.3495C184.422 34.3495 185.72 32.1935 185.72 29.3115C185.72 26.6275 184.466 24.3395 182.156 24.3395ZM191.213 36.7695V29.5535C191.213 27.9695 191.191 26.9355 191.125 26.0115H193.985L194.117 27.9915H194.205C194.755 26.4075 196.053 25.7475 197.109 25.7475C197.417 25.7475 197.571 25.7695 197.813 25.8135V28.9595C197.549 28.9155 197.285 28.8715 196.911 28.8715C195.679 28.8715 194.843 29.5315 194.623 30.5655C194.579 30.7855 194.557 31.0495 194.557 31.3135V36.7695H191.213ZM206.263 21.1495H209.607V33.5575C209.607 34.7675 209.651 36.0435 209.695 36.7695H206.725L206.593 35.2075H206.527C205.867 36.3955 204.547 37.0115 203.161 37.0115C200.609 37.0115 198.563 34.8335 198.563 31.4895C198.541 27.8595 200.807 25.7475 203.381 25.7475C204.723 25.7475 205.735 26.2315 206.219 26.9575H206.263V21.1495ZM206.263 31.9735V30.5655C206.263 30.3895 206.263 30.1475 206.219 29.9495C206.021 29.0695 205.295 28.3215 204.261 28.3215C202.721 28.3215 201.951 29.6855 201.951 31.3795C201.951 33.2055 202.853 34.3495 204.239 34.3495C205.207 34.3495 205.999 33.6895 206.197 32.7435C206.241 32.5015 206.263 32.2375 206.263 31.9735ZM221.568 32.4575H214.638C214.726 33.8435 216.112 34.5035 217.674 34.5035C218.818 34.5035 219.742 34.3495 220.644 34.0415L221.084 36.3075C219.984 36.7695 218.642 36.9895 217.19 36.9895C213.538 36.9895 211.448 34.8775 211.448 31.5115C211.448 28.7835 213.142 25.7695 216.882 25.7695C220.358 25.7695 221.678 28.4755 221.678 31.1375C221.678 31.7095 221.612 32.2155 221.568 32.4575ZM214.616 30.1695H218.576C218.576 29.3555 218.224 27.9915 216.684 27.9915C215.276 27.9915 214.704 29.2895 214.616 30.1695ZM223.467 36.7695V29.5535C223.467 27.9695 223.445 26.9355 223.379 26.0115H226.239L226.371 27.9915H226.459C227.009 26.4075 228.307 25.7475 229.363 25.7475C229.671 25.7475 229.825 25.7695 230.067 25.8135V28.9595C229.803 28.9155 229.539 28.8715 229.165 28.8715C227.933 28.8715 227.097 29.5315 226.877 30.5655C226.833 30.7855 226.811 31.0495 226.811 31.3135V36.7695H223.467Z" fill="#111111"/>
</g>
<defs>
<filter id="filter0_d_165_2946" x="70.9135" y="21.1504" width="159.154" height="21.4805" filterUnits="userSpaceOnUse" color-interpolation-filters="sRGB">
<feFlood flood-opacity="0" result="BackgroundImageFix"/>
<feColorMatrix in="SourceAlpha" type="matrix" values="0 0 0 0 0 0 0 0 0 0 0 0 0 0 0 0 0 0 127 0" result="hardAlpha"/>
<feOffset dy="1"/>
<feComposite in2="hardAlpha" operator="out"/>
<feColorMatrix type="matrix" values="0 0 0 0 1 0 0 0 0 1 0 0 0 0 1 0 0 0 1 0"/>
<feBlend mode="normal" in2="BackgroundImageFix" result="effect1_dropShadow_165_2946"/>
<feBlend mode="normal" in="SourceGraphic" in2="effect1_dropShadow_165_2946" result="shape"/>
</filter>
<linearGradient id="paint0_linear_165_2946" x1="-245.5" y1="25.5" x2="-102.824" y2="325.76" gradientUnits="userSpaceOnUse">
<stop stop-color="#A57E33"/>
<stop offset="0.275" stop-color="#EFD379"/>
<stop offset="0.5" stop-color="#FDED9F"/>
<stop offset="0.75" stop-color="#C79D4C"/>
<stop offset="1" stop-color="#94580B"/>
</linearGradient>
<linearGradient id="paint1_linear_165_2946" x1="40.5" y1="11.2695" x2="56.5754" y2="92.5979" gradientUnits="userSpaceOnUse">
<stop stop-color="#856220"/>
<stop offset="0.275" stop-color="#F4E683"/>
<stop offset="0.5" stop-color="#BF923D"/>
<stop offset="0.75" stop-color="#4E341B"/>
<stop offset="1" stop-color="#F1EA82"/>
</linearGradient>
</defs>
</svg>
