<svg width="301" height="61" viewBox="0 0 301 61" fill="none" xmlns="http://www.w3.org/2000/svg">
<rect x="1" y="1.41016" width="299" height="59" rx="29.5" fill="#233751"/>
<rect x="1" y="1.41016" width="299" height="59" rx="29.5" stroke="#293B53"/>
<path d="M80.3638 32.5172H75.4648L74.1308 36.9102H71.2098L76.1778 21.4082H79.7888L84.8258 36.9102H81.7668L80.3638 32.5172ZM75.9248 30.3782H79.9038L78.6848 26.5602C78.3858 25.6172 78.1328 24.5592 77.9028 23.6622H77.8568C77.6268 24.5592 77.3738 25.6402 77.1208 26.5602L75.9248 30.3782ZM93.6129 20.5802H96.4419V33.7592C96.4419 34.9092 96.4879 36.1512 96.5339 36.9102H94.0269L93.8889 35.1392H93.8429C93.1759 36.3812 91.8189 37.1632 90.2089 37.1632C87.5179 37.1632 85.4019 34.8862 85.4019 31.4362C85.3789 27.6872 87.7249 25.4562 90.4159 25.4562C91.9569 25.4562 93.0609 26.0772 93.5669 26.9052H93.6129V20.5802ZM93.6129 32.0572V30.3782C93.6129 30.1482 93.5899 29.8492 93.5439 29.6192C93.2909 28.5382 92.3939 27.6412 91.1059 27.6412C89.2889 27.6412 88.2769 29.2512 88.2769 31.3212C88.2769 33.3912 89.2889 34.8862 91.0829 34.8862C92.2329 34.8862 93.2449 34.1042 93.5209 32.8852C93.5899 32.6322 93.6129 32.3562 93.6129 32.0572ZM106.517 20.5802H109.346V33.7592C109.346 34.9092 109.392 36.1512 109.438 36.9102H106.931L106.793 35.1392H106.747C106.08 36.3812 104.723 37.1632 103.113 37.1632C100.422 37.1632 98.3062 34.8862 98.3062 31.4362C98.2832 27.6872 100.629 25.4562 103.32 25.4562C104.861 25.4562 105.965 26.0772 106.471 26.9052H106.517V20.5802ZM106.517 32.0572V30.3782C106.517 30.1482 106.494 29.8492 106.448 29.6192C106.195 28.5382 105.298 27.6412 104.01 27.6412C102.193 27.6412 101.181 29.2512 101.181 31.3212C101.181 33.3912 102.193 34.8862 103.987 34.8862C105.137 34.8862 106.149 34.1042 106.425 32.8852C106.494 32.6322 106.517 32.3562 106.517 32.0572ZM118.386 36.9102V23.7772H113.97V21.4082H125.677V23.7772H121.215V36.9102H118.386ZM130.237 25.4562C133.572 25.4562 135.803 27.8022 135.803 31.2062C135.803 35.3232 132.905 37.1632 130.053 37.1632C126.902 37.1632 124.441 35.0012 124.441 31.3902C124.441 27.7102 126.856 25.4562 130.237 25.4562ZM130.168 27.5032C128.167 27.5032 127.362 29.4582 127.362 31.3212C127.362 33.4832 128.443 35.1162 130.145 35.1162C131.755 35.1162 132.882 33.5522 132.882 31.2752C132.882 29.5272 132.1 27.5032 130.168 27.5032ZM155.479 36.9102L155.18 30.5852C155.088 28.5842 154.973 26.1692 154.996 24.0762H154.927C154.421 25.9622 153.777 28.0552 153.087 30.0102L150.81 36.7262H148.648L146.578 30.1022C145.98 28.1242 145.428 26.0082 145.014 24.0762H144.968C144.899 26.1002 144.807 28.5612 144.692 30.6772L144.347 36.9102H141.702L142.737 21.4082H146.463L148.487 27.6412C149.039 29.4582 149.522 31.2982 149.913 33.0232H149.982C150.396 31.3442 150.925 29.4352 151.523 27.6182L153.662 21.4082H157.342L158.239 36.9102H155.479ZM159.276 25.7092H162.404L164.405 31.7122C164.635 32.4022 164.888 33.2532 165.049 33.8742H165.118C165.279 33.2532 165.486 32.4022 165.716 31.6892L167.464 25.7092H170.477L167.671 33.3452C166.13 37.5312 165.095 39.3942 163.784 40.5442C162.657 41.5102 161.507 41.8782 160.817 41.9702L160.173 39.6012C160.656 39.4862 161.231 39.2332 161.806 38.8192C162.358 38.4742 162.979 37.8072 163.37 37.0482C163.485 36.8412 163.531 36.6802 163.531 36.5422C163.531 36.4272 163.508 36.2662 163.393 35.9902L159.276 25.7092ZM182.644 21.1322C187.152 21.1322 189.82 24.5592 189.82 28.9982C189.82 34.1962 186.669 37.1632 182.414 37.1632C178.021 37.1632 175.261 33.8052 175.261 29.2742C175.261 24.4902 178.274 21.1322 182.644 21.1322ZM182.552 23.4092C179.746 23.4092 178.251 26.0082 178.251 29.2052C178.251 32.3792 179.838 34.8862 182.552 34.8862C185.289 34.8862 186.83 32.3332 186.83 29.0902C186.83 26.1692 185.381 23.4092 182.552 23.4092ZM191.753 36.9102V29.3202C191.753 27.8022 191.73 26.6982 191.661 25.7092H194.099L194.214 27.8252H194.283C194.835 26.2612 196.146 25.4562 197.365 25.4562C197.641 25.4562 197.802 25.4792 198.032 25.5252V28.1702C197.779 28.1242 197.526 28.1012 197.181 28.1012C195.847 28.1012 194.904 28.9522 194.651 30.2402C194.605 30.4932 194.582 30.7922 194.582 31.0912V36.9102H191.753ZM206.787 20.5802H209.616V33.7592C209.616 34.9092 209.662 36.1512 209.708 36.9102H207.201L207.063 35.1392H207.017C206.35 36.3812 204.993 37.1632 203.383 37.1632C200.692 37.1632 198.576 34.8862 198.576 31.4362C198.553 27.6872 200.899 25.4562 203.59 25.4562C205.131 25.4562 206.235 26.0772 206.741 26.9052H206.787V20.5802ZM206.787 32.0572V30.3782C206.787 30.1482 206.764 29.8492 206.718 29.6192C206.465 28.5382 205.568 27.6412 204.28 27.6412C202.463 27.6412 201.451 29.2512 201.451 31.3212C201.451 33.3912 202.463 34.8862 204.257 34.8862C205.407 34.8862 206.419 34.1042 206.695 32.8852C206.764 32.6322 206.787 32.3562 206.787 32.0572ZM221.693 32.1032H214.195C214.264 34.1272 215.828 35.0012 217.645 35.0012C218.956 35.0012 219.876 34.7942 220.75 34.4952L221.164 36.4272C220.198 36.8412 218.864 37.1402 217.254 37.1402C213.62 37.1402 211.481 34.9092 211.481 31.4822C211.481 28.3772 213.367 25.4562 216.955 25.4562C220.589 25.4562 221.785 28.4462 221.785 30.9072C221.785 31.4362 221.739 31.8502 221.693 32.1032ZM214.195 30.1252H219.117C219.14 29.0902 218.68 27.3882 216.794 27.3882C215.046 27.3882 214.31 28.9752 214.195 30.1252ZM223.593 36.9102V29.3202C223.593 27.8022 223.57 26.6982 223.501 25.7092H225.939L226.054 27.8252H226.123C226.675 26.2612 227.986 25.4562 229.205 25.4562C229.481 25.4562 229.642 25.4792 229.872 25.5252V28.1702C229.619 28.1242 229.366 28.1012 229.021 28.1012C227.687 28.1012 226.744 28.9522 226.491 30.2402C226.445 30.4932 226.422 30.7922 226.422 31.0912V36.9102H223.593Z" fill="white"/>
</svg>
