<svg width="44" height="48" viewBox="0 0 44 48" fill="none" xmlns="http://www.w3.org/2000/svg">
<path d="M18.3419 26.1078C18.6275 25.4995 18.8432 24.8579 18.9891 24.1892C20.2034 24.0559 21.4136 23.5559 22.445 22.7122C24.5408 20.9915 25.603 18.1814 25.603 14.3588C25.603 13.3027 25.9605 12.4319 26.7002 11.6903L36.9202 1.32053C37.2181 1.01847 37.2181 0.530997 36.9202 0.228942C36.6222 -0.0731171 36.1414 -0.071032 35.8435 0.228942L25.6277 10.5966C24.6025 11.6236 24.0826 12.8902 24.0826 14.3588C24.0826 17.6918 23.2094 20.098 21.4897 21.5102C20.1295 22.6225 18.3892 22.9767 16.9489 22.4351C15.6503 21.9476 14.7792 20.8123 14.4936 19.2375C14.1895 17.573 12.932 16.296 11.2883 15.9877C9.73911 15.7002 8.61933 14.817 8.13647 13.5046C7.60023 12.0464 7.9495 10.2799 9.0467 8.89668C10.4213 7.17598 12.8622 6.26565 16.1023 6.26565C17.5467 6.26565 18.7939 5.74278 19.811 4.71368L23.1601 1.31813C23.458 1.01607 23.458 0.528597 23.1601 0.226543C22.8621 -0.0755115 22.3813 -0.0755169 22.0834 0.226543L18.7343 3.62209C18.0029 4.3616 17.1441 4.722 16.1023 4.722C12.3875 4.722 9.53797 5.83022 7.86112 7.92588C6.429 9.73197 5.98728 12.0755 6.70846 14.0422C6.71257 14.0526 6.71874 14.0609 6.72079 14.0713C3.5669 15.5087 1.49992 18.6918 1.49992 22.2477C1.49992 23.5892 1.79784 24.9079 2.36286 26.1036C1.08896 27.1348 0.228075 28.7388 0.0369829 30.5491C-0.236285 33.228 1.00885 36.0547 3.6388 38.7212C4.37025 39.4628 4.72366 40.3335 4.72366 41.3897L4.72777 47.2244C4.72777 47.6514 5.06884 47.9951 5.48798 47.9951C5.90918 47.9951 6.25025 47.6493 6.25025 47.2244V41.3913C6.25025 39.9268 5.73453 38.6623 4.71951 37.6312C2.38953 35.271 1.32524 32.942 1.55331 30.7128C1.74029 28.9484 2.72653 27.4506 4.12572 26.7986C5.3852 26.2132 6.79265 26.3903 8.08916 27.2965C9.48629 28.2755 11.2225 28.2755 12.6197 27.2965C13.9141 26.3903 15.3195 26.2133 16.5749 26.7965C17.972 27.4465 18.9562 28.9463 19.1452 30.7129C19.3836 32.9398 18.3233 35.2667 15.9913 37.6312C14.9743 38.6624 14.4606 39.9269 14.4606 41.3913V47.2244C14.4606 47.6515 14.8017 47.9952 15.2208 47.9952C15.642 47.9952 15.981 47.6494 15.981 47.2244L15.9831 41.3913C15.9831 40.3372 16.3385 39.4644 17.0679 38.7228C19.704 36.0501 20.945 33.2236 20.6594 30.5486C20.4683 28.7404 19.6116 27.139 18.3419 26.1078ZM11.7549 26.0286C10.8899 26.6327 9.81738 26.6327 8.95444 26.0286C7.2881 24.8621 5.37729 24.61 3.68244 25.3162C3.25302 24.36 3.0229 23.3122 3.0229 22.2498C3.0229 19.2584 4.78991 16.5815 7.47325 15.4211C8.29511 16.4918 9.51967 17.2313 11.0114 17.5084C12.0448 17.7021 12.803 18.4729 12.9941 19.5186C13.3742 21.6164 14.6214 23.2079 16.4171 23.8828C16.7459 24.0058 17.0869 24.0932 17.4342 24.1516C17.3294 24.5536 17.1959 24.9453 17.0294 25.3181C15.3343 24.6099 13.4251 24.86 11.7549 26.0286ZM13.4459 28.7721C13.7684 29.0471 13.8095 29.5325 13.5383 29.8596C13.1562 30.3199 12.7 30.6928 12.1946 30.9719C12.1925 30.974 12.1905 30.974 12.1884 30.9761C11.6501 31.274 11.0543 31.4636 10.4255 31.526C10.4009 31.5281 10.3741 31.5302 10.3495 31.5302C10.3248 31.5302 10.2981 31.5281 10.2735 31.526C9.7146 31.4677 9.17215 31.3011 8.67083 31.049C8.60713 31.0261 8.54755 30.9928 8.49413 30.9553C7.99485 30.6761 7.54282 30.3074 7.173 29.8595C6.90179 29.5325 6.94288 29.0471 7.26545 28.7721C7.58803 28.4971 8.06675 28.5388 8.338 28.8658C8.57634 29.1533 8.86604 29.3929 9.18453 29.5782C9.98172 29.7032 10.7461 29.7012 11.5309 29.5782C11.8453 29.3928 12.1309 29.1554 12.3713 28.8658C12.6425 28.5388 13.1233 28.4972 13.4459 28.7721ZM15.4122 17.9501C15.482 17.1502 15.2499 16.3627 14.7608 15.7211C14.1362 15.2316 13.3555 14.9983 12.5542 15.0608C12.1371 15.092 11.7693 14.7754 11.7364 14.3504C11.7035 13.9255 12.0158 13.5547 12.435 13.5213C13.6554 13.4276 14.8451 13.7984 15.7841 14.5733C15.8231 14.6067 15.8601 14.6442 15.8929 14.6838C16.6696 15.6503 17.0374 16.8586 16.9306 18.0876C16.8956 18.4897 16.5628 18.7917 16.1724 18.7917C16.1498 18.7917 16.1272 18.7917 16.1046 18.7896C15.6834 18.7501 15.3731 18.3751 15.4122 17.9501ZM32.7388 25.1495H24.0537C23.7578 25.1495 23.4907 25.3224 23.3654 25.5932C23.24 25.864 23.2791 26.1828 23.466 26.414L24.9844 28.2764C22.7469 30.4304 21.4771 33.4113 21.4771 36.5695C21.4771 42.8708 26.5295 48 32.7386 48C38.9479 48 44 42.8733 44 36.5695C44 30.2719 38.9479 25.1495 32.7388 25.1495ZM32.7388 46.4517C27.3679 46.4517 22.9996 42.0167 22.9996 36.5672C22.9996 33.6133 24.2837 30.8365 26.5253 28.9513C26.8479 28.6784 26.8931 28.193 26.626 27.866L25.6706 26.6932H32.7389C38.1098 26.6932 42.4781 31.124 42.4781 36.5675C42.4781 42.0172 38.1078 46.4517 32.7388 46.4517ZM37.9535 36.5672C37.9535 36.9943 37.6125 37.338 37.1933 37.338H33.4991V41.0835C33.4991 41.5105 33.158 41.8563 32.7389 41.8563C32.3177 41.8563 31.9787 41.5105 31.9787 41.0835V37.338H28.2844C27.8632 37.338 27.5222 36.9922 27.5222 36.5672C27.5222 36.1402 27.8632 35.7964 28.2844 35.7964H31.9787V32.0509C31.9787 31.6239 32.3197 31.2802 32.7389 31.2802C33.1601 31.2802 33.4991 31.626 33.4991 32.0509V35.7964H37.1933C37.6145 35.7944 37.9535 36.1402 37.9535 36.5672Z" fill="#233751"/>
</svg>
