<svg width="46" height="50" viewBox="0 0 46 50" fill="none" xmlns="http://www.w3.org/2000/svg">
<path fill-rule="evenodd" clip-rule="evenodd" d="M27.4975 48.9997C27.4407 48.9997 27.3839 48.9716 27.3271 48.9716L26.2761 48.5216C20.2557 46.0747 13.7792 42.7016 11.2529 36.2327C10.0599 33.139 9.94622 29.7657 9.97463 26.8972C10.003 25.266 10.0599 23.6066 10.1451 22.0056L10.1735 21.0774C10.1735 20.9649 10.2303 20.8524 10.3439 20.7681C10.4291 20.7118 10.5712 20.7118 10.6848 20.74C11.537 21.0493 12.4176 21.1899 13.355 21.1899C17.7864 21.1899 21.364 17.6181 21.364 13.2325C21.364 12.4169 21.2504 11.5732 20.9947 10.7857C20.9379 10.6169 21.0231 10.42 21.1651 10.3357C21.5912 10.1388 22.0457 9.88566 22.4718 9.63256C22.7843 9.46381 23.0968 9.26694 23.3808 9.09818C23.4376 9.07005 23.4945 9.04193 23.5513 9.04193C23.6081 9.04193 23.6649 9.0138 23.7217 8.98568C23.7785 8.95755 23.8353 8.9013 23.8921 8.84505C23.9206 8.7888 23.949 8.76068 24.0058 8.73255C24.233 8.5638 24.4887 8.42318 24.7443 8.25443L24.9716 8.1138C25.7101 7.63568 26.4487 7.15755 27.4997 7.15755C28.5224 7.15755 29.2609 7.63567 29.9995 8.1138L30.2551 8.25443C31.1357 8.81694 31.8175 9.23881 32.4993 9.63255C34.8854 11.0107 37.0159 11.9107 39.031 12.4451C39.9685 12.67 40.8491 12.8107 41.6444 12.8669L44.3146 13.0075C44.5135 13.0075 44.6839 13.1763 44.6839 13.3732V16.0169C44.6839 18.0138 44.7691 20.0388 44.826 21.9775C44.9112 23.5806 44.968 25.24 44.9964 26.8975C45.0248 29.7663 44.9112 33.1394 43.7181 36.233C41.1899 42.7 34.7153 46.0748 28.695 48.5219L27.6439 48.9719C27.5871 48.9719 27.5303 49 27.5019 49L27.4975 48.9997ZM10.9119 21.6115L10.8835 22.0334C10.8267 23.6365 10.7699 25.2678 10.7414 26.8972C10.713 29.7097 10.8267 32.9702 11.9629 35.9514C14.3775 42.165 20.6816 45.4559 26.5599 47.8184L27.4973 48.2122L28.4063 47.8184C34.2846 45.4559 40.5909 42.1674 43.0033 35.9514C44.1396 32.9702 44.2532 29.7095 44.2248 26.8972C44.1964 25.266 44.1396 23.6066 44.0827 22.0056C43.9975 20.0649 43.9123 18.04 43.9123 16.0166V13.7385L41.6114 13.5979C40.7308 13.5698 39.8218 13.4291 38.8275 13.1479C36.7539 12.6416 34.5665 11.6854 32.097 10.2791C31.4153 9.8854 30.7335 9.46353 29.8245 8.90102L29.5688 8.73227C28.8871 8.28228 28.2905 7.88854 27.4952 7.88854C26.6714 7.88854 26.0748 8.28228 25.3931 8.73227L25.1374 8.90102C24.9102 9.04165 24.6829 9.18227 24.4557 9.3229C24.3705 9.4354 24.2284 9.5479 24.0864 9.63227C23.9728 9.71664 23.8592 9.74477 23.7171 9.7729C23.4331 9.94164 23.149 10.1104 22.8649 10.2792C22.4957 10.476 22.1548 10.6729 21.8139 10.8698C22.0127 11.6291 22.1264 12.4167 22.1264 13.2323C22.1264 18.0399 18.1779 21.949 13.3504 21.949C12.4982 21.949 11.7029 21.8365 10.9074 21.6116L10.9119 21.6115Z" fill="#233751"/>
<path fill-rule="evenodd" clip-rule="evenodd" d="M27.4975 45.9623C27.4407 45.9623 27.3839 45.9623 27.3271 45.9342C13.069 40.1425 12.5309 34.2362 12.8416 25.0692C12.8416 24.8723 13.0121 24.7317 13.2109 24.7317H14.3472C14.6028 24.7317 14.8301 24.5067 14.8301 24.2535C14.8301 24.0004 14.6028 23.8035 14.3472 23.8035H13.2961C13.1825 23.8035 13.0973 23.7473 13.0121 23.691C12.9553 23.6067 12.8984 23.5223 12.8984 23.4098L12.9837 21.5535C12.9837 21.3567 13.1541 21.1879 13.3529 21.1879C17.6707 21.1879 21.1627 17.841 21.3619 13.5963C21.3619 13.4557 21.4471 13.3432 21.5892 13.2869C22.1857 12.9775 22.8106 12.64 23.4356 12.3025C23.5776 12.2463 23.7197 12.2463 23.8333 12.3025C23.9469 12.3588 24.0037 12.4994 24.0037 12.6119V14.2431C24.0037 14.4962 24.231 14.6931 24.4866 14.6931C24.7423 14.6931 24.9411 14.4962 24.9411 14.2431V12.2462C24.9411 12.1337 24.9127 12.0494 24.8559 11.965C24.7991 11.8806 24.7707 11.7681 24.7707 11.6556C24.7991 11.5712 24.8559 11.4869 24.9696 11.4306C25.5377 11.065 26.0206 10.7837 26.3899 10.5306C27.2137 10.0244 27.2989 9.93998 27.4978 9.93998C27.6682 9.93998 27.7818 10.0244 28.5772 10.5306C30.6509 11.8525 36.1882 15.3661 41.5002 15.6474C41.699 15.6474 41.8695 15.8161 41.8695 16.013C41.8695 18.488 41.9547 20.7661 42.0399 22.7613C42.4944 33.7561 42.7501 39.8012 27.6398 45.9322C27.5829 45.9604 27.5261 45.9604 27.4977 45.9604L27.4975 45.9623ZM13.5803 25.463C13.3246 34.3204 13.9779 39.6643 27.4975 45.1746C41.9544 39.2702 41.7275 33.7579 41.2728 22.8192C41.1876 20.8786 41.1024 18.713 41.1024 16.3805C35.707 15.9586 30.2529 12.4712 28.1794 11.1509C27.8953 10.9822 27.6397 10.8134 27.4977 10.7291C27.3272 10.8134 27.0716 10.9822 26.7875 11.1509C26.475 11.3759 26.1058 11.6009 25.6512 11.8822C25.6796 11.9947 25.708 12.1072 25.708 12.2478V14.2447C25.708 14.8916 25.1399 15.454 24.4866 15.454C23.8048 15.454 23.2651 14.8915 23.2651 14.2447V13.2603C22.8674 13.4572 22.4982 13.6541 22.1005 13.8509C21.788 18.2665 18.1804 21.7522 13.7226 21.9207L13.6941 23.0457H14.3475C15.0293 23.0457 15.569 23.5801 15.569 24.255C15.569 24.93 15.0293 25.4644 14.3475 25.4644H13.5806L13.5803 25.463Z" fill="#233751"/>
<path fill-rule="evenodd" clip-rule="evenodd" d="M24.6285 34.1256C24.5148 34.1256 24.4296 34.0974 24.3444 34.0131L18.6082 28.3337C18.4662 28.1931 18.4662 27.9681 18.6082 27.7993C18.7502 27.6587 19.0059 27.6587 19.1479 27.7993L24.6286 33.2257L35.8189 22.1181C35.9609 21.9775 36.2166 21.9775 36.3586 22.1181C36.5007 22.2868 36.5007 22.5118 36.3586 22.6525L24.8843 34.0131C24.7991 34.0974 24.7137 34.1256 24.6285 34.1256Z" fill="#233751"/>
<path fill-rule="evenodd" clip-rule="evenodd" d="M13.3529 21.9495C8.49707 21.9495 4.54882 18.0401 4.54882 13.2327C4.54882 8.42528 8.49731 4.54378 13.3529 4.54378C18.182 4.54378 22.1288 8.42499 22.1288 13.2327C22.1288 18.0404 18.1803 21.9495 13.3529 21.9495ZM13.3529 5.27529C8.92147 5.27529 5.31578 8.84715 5.31578 13.2327C5.31578 17.6202 8.92341 21.1901 13.3529 21.1901C17.7843 21.1901 21.3619 17.6182 21.3619 13.2327C21.3619 8.84523 17.7826 5.27529 13.3529 5.27529Z" fill="#233751"/>
<path fill-rule="evenodd" clip-rule="evenodd" d="M13.3529 5.27529C13.1256 5.27529 12.9552 5.10616 12.9552 4.90928V3.05304C12.9552 2.82804 13.1256 2.65929 13.3529 2.65929C13.5517 2.65929 13.7222 2.82804 13.7222 3.05304V4.90928C13.7222 5.10616 13.5517 5.27529 13.3529 5.27529Z" fill="#233751"/>
<path fill-rule="evenodd" clip-rule="evenodd" d="M14.3472 3.41871H12.3303C11.6486 3.41871 11.1089 2.88433 11.1089 2.20935C11.1089 1.53438 11.6486 1 12.3303 1H14.3472C15.0289 1 15.5687 1.53438 15.5687 2.20935C15.5687 2.88433 15.0289 3.41871 14.3472 3.41871ZM12.3303 1.75936C12.0747 1.75936 11.8758 1.95623 11.8758 2.20935C11.8758 2.46248 12.0747 2.65935 12.3303 2.65935H14.3472C14.6029 2.65935 14.8301 2.46248 14.8301 2.20935C14.8301 1.95623 14.6029 1.75936 14.3472 1.75936H12.3303Z" fill="#233751"/>
<path fill-rule="evenodd" clip-rule="evenodd" d="M17.5571 6.39801C17.4719 6.39801 17.4151 6.36988 17.3583 6.34176C17.1878 6.25738 17.131 6.00426 17.2162 5.8355L18.1536 4.23241C18.2673 4.03553 18.4945 3.97928 18.665 4.09178C18.8638 4.17615 18.9206 4.42928 18.807 4.59803L17.8696 6.20113C17.8128 6.34176 17.6707 6.39801 17.5571 6.39801Z" fill="#233751"/>
<path fill-rule="evenodd" clip-rule="evenodd" d="M19.7732 5.38742C19.5743 5.38742 19.347 5.33117 19.1766 5.24679L17.4154 4.23429C17.1597 4.06554 16.9325 3.81241 16.8473 3.50306C16.762 3.19369 16.8189 2.85617 16.9893 2.57494C17.1881 2.20931 17.6143 1.9843 18.0403 1.9843C18.2676 1.9843 18.4664 2.04055 18.6369 2.15305L20.3981 3.13743C20.6822 3.30617 20.881 3.5593 20.9662 3.86865C21.0515 4.17803 20.9946 4.51555 20.8526 4.79678C20.6254 5.1624 20.2277 5.38742 19.7732 5.38742ZM18.0404 2.74369C17.8699 2.74369 17.7279 2.82806 17.6427 2.96869C17.5859 3.05306 17.5575 3.19369 17.5859 3.30619C17.6143 3.41868 17.6995 3.53119 17.8131 3.58744L19.5459 4.59995C19.7732 4.71245 20.0572 4.62807 20.1993 4.4312C20.2561 4.3187 20.2561 4.17807 20.2277 4.06557C20.1993 3.95307 20.1141 3.84057 20.0288 3.78432L18.2676 2.79994C18.2108 2.74369 18.1256 2.74369 18.0404 2.74369Z" fill="#233751"/>
<path fill-rule="evenodd" clip-rule="evenodd" d="M20.625 9.43543C20.5113 9.43543 20.3693 9.37918 20.3125 9.26669C20.1989 9.06981 20.2557 8.84481 20.4261 8.76043L22.0737 7.80418C22.2441 7.71981 22.4714 7.77606 22.585 7.9448C22.6986 8.14168 22.6134 8.36668 22.443 8.47919L20.8238 9.40731C20.767 9.43543 20.6818 9.43543 20.625 9.43543Z" fill="#233751"/>
<path fill-rule="evenodd" clip-rule="evenodd" d="M23.4921 9.80119C23.066 9.80119 22.6399 9.57619 22.441 9.18243L21.4184 7.46682C21.0775 6.87618 21.2764 6.14495 21.8729 5.80747C22.0433 5.69496 22.2706 5.63872 22.4694 5.63872C22.9239 5.63872 23.3216 5.89184 23.5489 6.25748L24.5431 7.97309C24.884 8.56373 24.6852 9.29496 24.0886 9.63244C23.9182 9.74495 23.7194 9.80119 23.4921 9.80119ZM22.4694 6.3981C22.3842 6.3981 22.3274 6.42623 22.2422 6.45435C22.0149 6.59498 21.9581 6.87623 22.0718 7.10125L23.0944 8.81685C23.208 9.01373 23.4921 9.09811 23.7194 8.9856C23.9466 8.8731 24.0318 8.56373 23.8898 8.36684L22.8956 6.6231C22.8103 6.48248 22.6399 6.3981 22.4694 6.3981Z" fill="#233751"/>
<path fill-rule="evenodd" clip-rule="evenodd" d="M23.6341 13.598H21.7593C21.532 13.598 21.3619 13.4296 21.3619 13.2327C21.3619 13.0358 21.532 12.8667 21.7593 12.8667H23.6341C23.833 12.8667 24.0034 13.0355 24.0034 13.2324C24.0034 13.4292 23.833 13.598 23.6341 13.598Z" fill="#233751"/>
<path fill-rule="evenodd" clip-rule="evenodd" d="M24.4864 15.4522C23.8047 15.4522 23.265 14.8897 23.265 14.2429V12.246C23.265 11.571 23.8047 11.0366 24.4864 11.0366C25.1398 11.0366 25.7079 11.571 25.7079 12.246V14.2429C25.7079 14.8897 25.1397 15.4522 24.4864 15.4522ZM24.4864 11.7678C24.2308 11.7678 24.0035 11.9928 24.0035 12.246L24.0037 14.2431C24.0037 14.4962 24.231 14.6931 24.4866 14.6931C24.7423 14.6931 24.9411 14.4962 24.9411 14.2431V12.2462C24.9411 11.9931 24.7421 11.7678 24.4864 11.7678Z" fill="#233751"/>
<path fill-rule="evenodd" clip-rule="evenodd" d="M22.2442 18.7147C22.1874 18.7147 22.1306 18.6866 22.0738 18.6585L20.4262 17.7304C20.2558 17.6179 20.1989 17.3929 20.3126 17.2241C20.3978 17.0272 20.625 16.971 20.8239 17.0835L22.443 18.0116C22.6135 18.096 22.6987 18.3491 22.5851 18.5179C22.5283 18.6304 22.3862 18.7147 22.2442 18.7147Z" fill="#233751"/>
<path fill-rule="evenodd" clip-rule="evenodd" d="M22.4716 20.8243C22.2727 20.8243 22.0455 20.7681 21.875 20.6556C21.2785 20.3181 21.0796 19.5868 21.4205 18.9962L22.4432 17.2806C22.642 16.915 23.0681 16.6619 23.4942 16.6619C23.6931 16.6619 23.9203 16.7181 24.0908 16.8306C24.6873 17.1681 24.8861 17.8994 24.5453 18.49L23.551 20.2056C23.3238 20.5993 22.9261 20.8243 22.4716 20.8243ZM23.4942 17.4213C23.3238 17.4213 23.1817 17.5056 23.0965 17.6463L22.0739 19.39C21.9603 19.615 22.0171 19.8962 22.2443 20.0088C22.4716 20.1213 22.7556 20.065 22.8977 19.84L23.8919 18.1244C24.034 17.8994 23.9487 17.6181 23.7215 17.4775C23.6647 17.4494 23.5794 17.4213 23.4942 17.4213Z" fill="#233751"/>
<path fill-rule="evenodd" clip-rule="evenodd" d="M18.4947 22.4275C18.3527 22.4275 18.2391 22.3713 18.1538 22.2588L17.2164 20.6276C17.1028 20.4588 17.188 20.2338 17.3585 20.1213C17.5289 20.0088 17.7846 20.0932 17.8698 20.2619L18.8072 21.865C18.9208 22.0619 18.864 22.2869 18.6652 22.3713C18.6084 22.4275 18.5515 22.4275 18.4947 22.4275Z" fill="#233751"/>
<path fill-rule="evenodd" clip-rule="evenodd" d="M18.04 24.4805C17.6139 24.4805 17.1878 24.2555 16.9889 23.8898C16.8185 23.6086 16.7617 23.2711 16.8469 22.9617C16.9321 22.6523 17.1594 22.3992 17.415 22.2305L19.1762 21.2461C19.3467 21.1336 19.5739 21.0774 19.7728 21.0774C20.2273 21.0774 20.625 21.3024 20.8522 21.668C20.9943 21.9493 21.0511 22.2868 20.9659 22.5961C20.8807 22.9055 20.6818 23.1586 20.3977 23.3274L18.6365 24.3399C18.4661 24.4242 18.2672 24.4805 18.04 24.4805ZM19.7728 21.8368C19.6875 21.8368 19.6307 21.8368 19.5455 21.893L17.8127 22.8774C17.6991 22.9336 17.6139 23.0461 17.5855 23.1586C17.5571 23.2711 17.5855 23.4118 17.6423 23.5243C17.7559 23.7211 18.0684 23.8055 18.2672 23.693L20.0284 22.6805C20.1137 22.6242 20.1989 22.5117 20.2273 22.3992C20.2557 22.2867 20.2557 22.1461 20.1989 22.0618C20.1137 21.9211 19.9432 21.8368 19.7728 21.8368Z" fill="#233751"/>
<path fill-rule="evenodd" clip-rule="evenodd" d="M14.3472 25.463H12.3303C11.6486 25.463 11.1089 24.9287 11.1089 24.2537C11.1089 23.5787 11.6486 23.0443 12.3303 23.0443H14.3472C15.0289 23.0443 15.5687 23.5787 15.5687 24.2537C15.5687 24.9287 15.0289 25.463 14.3472 25.463ZM12.3303 23.8037C12.0747 23.8037 11.8758 24.0006 11.8758 24.2537C11.8758 24.5068 12.0747 24.7318 12.3303 24.7318L14.3472 24.7317C14.6028 24.7317 14.8301 24.5067 14.8301 24.2535C14.8301 24.0004 14.6028 23.8035 14.3472 23.8035L12.3303 23.8037Z" fill="#233751"/>
<path fill-rule="evenodd" clip-rule="evenodd" d="M8.18486 22.4275C8.12804 22.4275 8.07123 22.4275 8.01442 22.3713C7.81557 22.2869 7.75876 22.0619 7.87239 21.865L8.8098 20.2619C8.92343 20.0932 9.15068 20.0088 9.32113 20.1213C9.51998 20.2338 9.57679 20.4588 9.46316 20.6276L8.52574 22.2588C8.46893 22.3713 8.32689 22.4275 8.18486 22.4275Z" fill="#233751"/>
<path fill-rule="evenodd" clip-rule="evenodd" d="M8.6396 24.4805C8.44076 24.4805 8.2135 24.4242 8.04305 24.3399L6.28185 23.3274C5.99779 23.1586 5.79894 22.9055 5.71371 22.5961C5.62849 22.2868 5.6853 21.9492 5.85574 21.668C6.05459 21.3024 6.48071 21.0774 6.9068 21.0774C7.13405 21.0774 7.3329 21.1336 7.50335 21.2461L9.26455 22.2305C9.54862 22.3992 9.74746 22.6524 9.8327 22.9617C9.91791 23.2711 9.8611 23.6086 9.71907 23.8898C9.49181 24.2555 9.09411 24.4805 8.6396 24.4805ZM6.90681 21.8368C6.73638 21.8368 6.59434 21.9211 6.50912 22.0618C6.45231 22.1461 6.42391 22.2868 6.45231 22.3992C6.48072 22.5117 6.56594 22.6242 6.67956 22.6805L8.41235 23.693C8.6396 23.8055 8.92368 23.7211 9.06572 23.5243C9.17935 23.2993 9.09413 23.018 8.89529 22.8774L7.13409 21.893C7.07727 21.8367 6.99203 21.8368 6.90681 21.8368Z" fill="#233751"/>
<path fill-rule="evenodd" clip-rule="evenodd" d="M4.43538 18.7147C4.29334 18.7147 4.17972 18.6304 4.0945 18.5179C4.00928 18.3491 4.06609 18.096 4.23653 18.0116L5.88409 17.0835C6.05453 16.971 6.28178 17.0272 6.39542 17.2241C6.48064 17.3929 6.42382 17.6179 6.25338 17.7304L4.63423 18.6585C4.54901 18.6866 4.49219 18.7147 4.43538 18.7147Z" fill="#233751"/>
<path fill-rule="evenodd" clip-rule="evenodd" d="M4.208 20.8243C3.7819 20.8243 3.35581 20.5993 3.15695 20.2056L2.1343 18.49C1.96386 18.2087 1.93545 17.8712 2.02067 17.5618C2.10589 17.2525 2.30474 16.9993 2.58881 16.8306C2.75925 16.7181 2.9865 16.6619 3.18536 16.6619C3.63987 16.6619 4.03756 16.915 4.26483 17.2806L5.25907 18.9962C5.59995 19.5869 5.4011 20.3181 4.80456 20.6556C4.63413 20.7681 4.40686 20.8243 4.208 20.8243ZM3.18535 17.4213C3.10014 17.4213 3.04332 17.4494 2.9581 17.4775C2.84447 17.5338 2.78767 17.6463 2.75926 17.7588C2.73085 17.8713 2.73085 18.0119 2.78766 18.1244L3.81031 19.84C3.92394 20.065 4.23641 20.1212 4.43527 20.0087C4.66252 19.8962 4.74774 19.615 4.60571 19.39L3.61147 17.6462C3.52625 17.5056 3.3558 17.4213 3.18535 17.4213Z" fill="#233751"/>
<path fill-rule="evenodd" clip-rule="evenodd" d="M4.94685 13.598H3.0436C2.84475 13.598 2.67431 13.4292 2.67431 13.2324C2.67431 13.0355 2.84475 12.8667 3.0436 12.8667H4.94685C5.14569 12.8667 5.31578 13.0358 5.31578 13.2327C5.31578 13.4296 5.14569 13.598 4.94685 13.598Z" fill="#233751"/>
<path fill-rule="evenodd" clip-rule="evenodd" d="M2.22147 15.4522C1.53973 15.4522 1 14.8897 1 14.2429V12.246C1 11.571 1.53973 11.0366 2.22147 11.0366C2.87484 11.0366 3.44293 11.571 3.44293 12.246V14.2429C3.44293 14.8897 2.87479 15.4522 2.22147 15.4522ZM2.22147 11.7678C1.96581 11.7678 1.73856 11.9928 1.73856 12.246V14.2428C1.73856 14.496 1.96581 14.6928 2.22147 14.6928C2.47712 14.6928 2.67597 14.496 2.67597 14.2428V12.246C2.67597 11.9928 2.47712 11.7678 2.22147 11.7678Z" fill="#233751"/>
<path fill-rule="evenodd" clip-rule="evenodd" d="M6.05462 9.43543C5.99781 9.43543 5.941 9.43543 5.88419 9.40731L4.23663 8.47918C4.06619 8.36668 4.00937 8.14169 4.09459 7.9448C4.20822 7.77606 4.43547 7.7198 4.63433 7.80418L6.25348 8.76043C6.42391 8.8448 6.48073 9.0698 6.39551 9.26668C6.31029 9.37919 6.19665 9.43543 6.05462 9.43543Z" fill="#233751"/>
<path fill-rule="evenodd" clip-rule="evenodd" d="M3.18729 9.80119C2.98845 9.80119 2.76119 9.74494 2.59074 9.63244C1.99419 9.29495 1.79537 8.56368 2.13624 7.97309L3.15888 6.25748C3.35773 5.89186 3.78385 5.63872 4.20994 5.63872C4.43719 5.63872 4.63604 5.69497 4.80649 5.80747C5.40305 6.14496 5.60187 6.87623 5.261 7.46682L4.26676 9.18243C4.03951 9.57617 3.6418 9.80119 3.18729 9.80119ZM4.20994 6.3981C4.0395 6.3981 3.89747 6.48248 3.81225 6.6231L2.7896 8.36684C2.67598 8.56371 2.73279 8.87309 2.96004 8.9856C3.18729 9.09811 3.47137 9.01373 3.61341 8.81685L4.60765 7.10125C4.74968 6.87625 4.66447 6.59499 4.43721 6.45435C4.3804 6.42623 4.29516 6.3981 4.20994 6.3981Z" fill="#233751"/>
<path fill-rule="evenodd" clip-rule="evenodd" d="M9.15059 6.39801C9.00856 6.39801 8.89493 6.34176 8.80971 6.20113L7.87229 4.59803C7.75867 4.42929 7.81548 4.17616 8.01433 4.09178C8.18477 3.97928 8.41202 4.03553 8.52565 4.23241L9.46307 5.8355C9.57669 6.00425 9.51988 6.25738 9.32104 6.34176C9.26422 6.36988 9.2074 6.39801 9.15059 6.39801Z" fill="#233751"/>
<path fill-rule="evenodd" clip-rule="evenodd" d="M6.90643 5.38742C6.48033 5.38742 6.05424 5.16242 5.85537 4.79678C5.68493 4.51553 5.62812 4.17802 5.71334 3.86866C5.79855 3.55929 5.9974 3.30615 6.28148 3.13743L8.04268 2.15305C8.21312 2.04055 8.44037 1.9843 8.63923 1.9843C9.09374 1.9843 9.49142 2.2093 9.7187 2.57494C9.86073 2.85619 9.91754 3.19371 9.83232 3.50306C9.74711 3.81244 9.54826 4.06557 9.26418 4.23429L7.50298 5.2468C7.33254 5.33117 7.13369 5.38742 6.90643 5.38742ZM8.63922 2.74369C8.554 2.74369 8.49718 2.74369 8.41196 2.79994L6.67917 3.78432C6.56555 3.84057 6.48033 3.95307 6.45192 4.06557C6.42352 4.17807 6.45192 4.31869 6.50874 4.43119C6.62236 4.62807 6.93484 4.71244 7.1337 4.59994L8.8949 3.58743C8.98012 3.53118 9.06533 3.41868 9.09374 3.30618C9.12215 3.19368 9.12215 3.05306 9.06534 2.96868C8.98012 2.82806 8.80966 2.74369 8.63922 2.74369Z" fill="#233751"/>
<path fill-rule="evenodd" clip-rule="evenodd" d="M13.3529 19.3896C9.91571 19.3896 7.1338 16.6334 7.1338 13.2322C7.1338 9.85725 9.91765 7.10264 13.3529 7.10264C16.7616 7.10264 19.5438 9.85889 19.5438 13.2322C19.5438 16.6353 16.76 19.3896 13.3529 19.3896ZM13.3529 7.83224C10.3418 7.83224 7.90076 10.251 7.90076 13.2303C7.90076 16.2115 10.3437 18.6284 13.3529 18.6284C16.3355 18.6284 18.805 16.2096 18.805 13.2303C18.805 10.2491 16.3336 7.83224 13.3529 7.83224Z" fill="#233751"/>
<path d="M14.3472 24.7317H13.2109C13.0121 24.7317 12.8416 24.8723 12.8416 25.0692C12.5309 34.2362 13.069 40.1425 27.3271 45.9342C27.3839 45.9623 27.4407 45.9623 27.4975 45.9623L27.4977 45.9604C27.5261 45.9604 27.5829 45.9604 27.6398 45.9322C42.7501 39.8012 42.4944 33.7561 42.0399 22.7613C41.9547 20.7661 41.8695 18.488 41.8695 16.013C41.8695 15.8161 41.699 15.6474 41.5002 15.6474C36.1882 15.3661 30.6509 11.8525 28.5772 10.5306C27.7818 10.0244 27.6682 9.93998 27.4978 9.93998C27.2989 9.93998 27.2137 10.0244 26.3899 10.5306C26.0206 10.7837 25.5377 11.065 24.9696 11.4306C24.8559 11.4869 24.7991 11.5712 24.7707 11.6556C24.7707 11.7681 24.7991 11.8806 24.8559 11.965C24.9127 12.0494 24.9411 12.1337 24.9411 12.2462M14.3472 24.7317C14.6029 24.7317 14.8301 24.5067 14.8301 24.2535C14.8301 24.0004 14.6029 23.8035 14.3472 23.8035M14.3472 24.7317L12.3303 24.7318C12.0747 24.7318 11.8758 24.5068 11.8758 24.2537C11.8758 24.0006 12.0747 23.8037 12.3303 23.8037L14.3472 23.8035M14.3472 23.8035H13.2961C13.1825 23.8035 13.0973 23.7473 13.0121 23.691C12.9553 23.6067 12.8984 23.5223 12.8984 23.4098L12.9837 21.5535C12.9837 21.3567 13.1541 21.1879 13.3529 21.1879C17.6707 21.1879 21.1627 17.841 21.3619 13.5963C21.3619 13.4557 21.4471 13.3432 21.5892 13.2869C22.1857 12.9775 22.8106 12.64 23.4356 12.3025C23.5776 12.2463 23.7197 12.2463 23.8333 12.3025C23.9469 12.3588 24.0037 12.4994 24.0037 12.6119V14.2431M24.0037 14.2431C24.0037 14.4962 24.231 14.6931 24.4866 14.6931C24.7423 14.6931 24.9411 14.4962 24.9411 14.2431V12.2462M24.0037 14.2431L24.0035 12.246C24.0035 11.9928 24.2308 11.7678 24.4864 11.7678C24.7421 11.7678 24.9411 11.9931 24.9411 12.2462M13.3529 5.27529C8.92147 5.27529 5.31578 8.84715 5.31578 13.2327M13.3529 5.27529C17.7826 5.27529 21.3619 8.84523 21.3619 13.2327M13.3529 5.27529C13.1256 5.27529 12.9552 5.10616 12.9552 4.90928V3.05304C12.9552 2.82804 13.1256 2.65929 13.3529 2.65929C13.5517 2.65929 13.7222 2.82804 13.7222 3.05304V4.90928C13.7222 5.10616 13.5517 5.27529 13.3529 5.27529ZM5.31578 13.2327C5.31578 17.6202 8.92341 21.1901 13.3529 21.1901C17.7843 21.1901 21.3619 17.6182 21.3619 13.2327M5.31578 13.2327C5.31578 13.0358 5.14569 12.8667 4.94685 12.8667H3.0436C2.84475 12.8667 2.67431 13.0355 2.67431 13.2324C2.67431 13.4292 2.84475 13.598 3.0436 13.598H4.94685C5.14569 13.598 5.31578 13.4296 5.31578 13.2327ZM21.3619 13.2327C21.3619 13.4296 21.532 13.598 21.7593 13.598H23.6341C23.833 13.598 24.0034 13.4292 24.0034 13.2324C24.0034 13.0355 23.833 12.8667 23.6341 12.8667H21.7593C21.532 12.8667 21.3619 13.0358 21.3619 13.2327ZM27.4975 48.9997C27.4407 48.9997 27.3839 48.9716 27.3271 48.9716L26.2761 48.5216C20.2557 46.0747 13.7792 42.7016 11.2529 36.2327C10.0599 33.139 9.94622 29.7657 9.97463 26.8972C10.003 25.266 10.0599 23.6066 10.1451 22.0056L10.1735 21.0774C10.1735 20.9649 10.2303 20.8524 10.3439 20.7681C10.4291 20.7118 10.5712 20.7118 10.6848 20.74C11.537 21.0493 12.4176 21.1899 13.355 21.1899C17.7864 21.1899 21.364 17.6181 21.364 13.2325C21.364 12.4169 21.2504 11.5732 20.9947 10.7857C20.9379 10.6169 21.0231 10.42 21.1651 10.3357C21.5912 10.1388 22.0457 9.88566 22.4718 9.63256C22.7843 9.46381 23.0968 9.26694 23.3808 9.09818C23.4376 9.07005 23.4945 9.04193 23.5513 9.04193C23.6081 9.04193 23.6649 9.0138 23.7217 8.98568C23.7785 8.95755 23.8353 8.9013 23.8921 8.84505C23.9206 8.7888 23.949 8.76068 24.0058 8.73255C24.233 8.5638 24.4887 8.42318 24.7443 8.25443L24.9716 8.1138C25.7101 7.63568 26.4487 7.15755 27.4997 7.15755C28.5224 7.15755 29.2609 7.63567 29.9995 8.1138L30.2551 8.25443C31.1357 8.81694 31.8175 9.23881 32.4993 9.63255C34.8854 11.0107 37.0159 11.9107 39.031 12.4451C39.9685 12.67 40.8491 12.8107 41.6444 12.8669L44.3146 13.0075C44.5135 13.0075 44.6839 13.1763 44.6839 13.3732V16.0169C44.6839 18.0138 44.7691 20.0388 44.826 21.9775C44.9112 23.5806 44.968 25.24 44.9964 26.8975C45.0248 29.7663 44.9112 33.1394 43.7181 36.233C41.1899 42.7 34.7153 46.0748 28.695 48.5219L27.6439 48.9719C27.5871 48.9719 27.5303 49 27.5019 49L27.4975 48.9997ZM10.9119 21.6115L10.8835 22.0334C10.8267 23.6365 10.7699 25.2678 10.7414 26.8972C10.713 29.7097 10.8267 32.9702 11.9629 35.9514C14.3775 42.165 20.6816 45.4559 26.5599 47.8184L27.4973 48.2122L28.4063 47.8184C34.2846 45.4559 40.5909 42.1674 43.0033 35.9514C44.1396 32.9702 44.2532 29.7095 44.2248 26.8972C44.1964 25.266 44.1396 23.6066 44.0827 22.0056C43.9975 20.0649 43.9123 18.04 43.9123 16.0166V13.7385L41.6114 13.5979C40.7308 13.5698 39.8218 13.4291 38.8275 13.1479C36.7539 12.6416 34.5665 11.6854 32.097 10.2791C31.4153 9.8854 30.7335 9.46353 29.8245 8.90102L29.5688 8.73227C28.8871 8.28228 28.2905 7.88854 27.4952 7.88854C26.6714 7.88854 26.0748 8.28228 25.3931 8.73227L25.1374 8.90102C24.9102 9.04165 24.6829 9.18227 24.4557 9.3229C24.3705 9.4354 24.2284 9.5479 24.0864 9.63227C23.9728 9.71664 23.8592 9.74477 23.7171 9.7729C23.4331 9.94164 23.149 10.1104 22.8649 10.2792C22.4957 10.476 22.1548 10.6729 21.8139 10.8698C22.0127 11.6291 22.1264 12.4167 22.1264 13.2323C22.1264 18.0399 18.1779 21.949 13.3504 21.949C12.4982 21.949 11.7029 21.8365 10.9074 21.6116L10.9119 21.6115ZM13.5803 25.463C13.3246 34.3204 13.9779 39.6643 27.4975 45.1746C41.9544 39.2702 41.7275 33.7579 41.2728 22.8192C41.1876 20.8786 41.1024 18.713 41.1024 16.3805C35.707 15.9586 30.2529 12.4712 28.1794 11.1509C27.8953 10.9822 27.6397 10.8134 27.4977 10.7291C27.3272 10.8134 27.0716 10.9822 26.7875 11.1509C26.475 11.3759 26.1058 11.6009 25.6512 11.8822C25.6796 11.9947 25.708 12.1072 25.708 12.2478V14.2447C25.708 14.8916 25.1399 15.454 24.4866 15.454C23.8048 15.454 23.2651 14.8915 23.2651 14.2447V13.2603C22.8674 13.4572 22.4982 13.6541 22.1005 13.8509C21.788 18.2665 18.1804 21.7522 13.7226 21.9207L13.6941 23.0457H14.3475C15.0293 23.0457 15.569 23.5801 15.569 24.255C15.569 24.93 15.0293 25.4644 14.3475 25.4644H13.5806L13.5803 25.463ZM24.6285 34.1256C24.5148 34.1256 24.4296 34.0974 24.3444 34.0131L18.6082 28.3337C18.4662 28.1931 18.4662 27.9681 18.6082 27.7993C18.7502 27.6587 19.0059 27.6587 19.1479 27.7993L24.6286 33.2257L35.8189 22.1181C35.9609 21.9775 36.2166 21.9775 36.3586 22.1181C36.5007 22.2868 36.5007 22.5118 36.3586 22.6525L24.8843 34.0131C24.7991 34.0974 24.7137 34.1256 24.6285 34.1256ZM13.3529 21.9495C8.49707 21.9495 4.54882 18.0401 4.54882 13.2327C4.54882 8.42528 8.49731 4.54378 13.3529 4.54378C18.182 4.54378 22.1288 8.42499 22.1288 13.2327C22.1288 18.0404 18.1803 21.9495 13.3529 21.9495ZM14.3472 3.41871H12.3303C11.6486 3.41871 11.1089 2.88433 11.1089 2.20935C11.1089 1.53438 11.6486 1 12.3303 1H14.3472C15.0289 1 15.5687 1.53438 15.5687 2.20935C15.5687 2.88433 15.0289 3.41871 14.3472 3.41871ZM12.3303 1.75936C12.0747 1.75936 11.8758 1.95623 11.8758 2.20935C11.8758 2.46248 12.0747 2.65935 12.3303 2.65935H14.3472C14.6029 2.65935 14.8301 2.46248 14.8301 2.20935C14.8301 1.95623 14.6029 1.75936 14.3472 1.75936H12.3303ZM17.5571 6.39801C17.4719 6.39801 17.4151 6.36988 17.3583 6.34176C17.1878 6.25738 17.131 6.00426 17.2162 5.8355L18.1536 4.23241C18.2673 4.03553 18.4945 3.97928 18.665 4.09178C18.8638 4.17615 18.9206 4.42928 18.807 4.59803L17.8696 6.20113C17.8128 6.34176 17.6707 6.39801 17.5571 6.39801ZM19.7732 5.38742C19.5743 5.38742 19.3471 5.33117 19.1766 5.24679L17.4154 4.23429C17.1597 4.06554 16.9325 3.81241 16.8473 3.50306C16.762 3.19369 16.8189 2.85617 16.9893 2.57494C17.1881 2.20931 17.6143 1.9843 18.0403 1.9843C18.2676 1.9843 18.4664 2.04055 18.6369 2.15305L20.3981 3.13743C20.6822 3.30617 20.881 3.5593 20.9662 3.86865C21.0515 4.17803 20.9946 4.51555 20.8526 4.79678C20.6254 5.1624 20.2277 5.38742 19.7732 5.38742ZM18.0404 2.74369C17.8699 2.74369 17.7279 2.82806 17.6427 2.96869C17.5859 3.05306 17.5575 3.19369 17.5859 3.30619C17.6143 3.41868 17.6995 3.53119 17.8131 3.58744L19.5459 4.59995C19.7732 4.71245 20.0572 4.62807 20.1993 4.4312C20.2561 4.3187 20.2561 4.17807 20.2277 4.06557C20.1993 3.95307 20.1141 3.84057 20.0288 3.78432L18.2676 2.79994C18.2108 2.74369 18.1256 2.74369 18.0404 2.74369ZM20.625 9.43543C20.5113 9.43543 20.3693 9.37918 20.3125 9.26669C20.1989 9.06981 20.2557 8.84481 20.4261 8.76043L22.0737 7.80418C22.2441 7.71981 22.4714 7.77606 22.585 7.9448C22.6986 8.14168 22.6134 8.36668 22.443 8.47919L20.8238 9.40731C20.767 9.43543 20.6818 9.43543 20.625 9.43543ZM23.4921 9.80119C23.066 9.80119 22.6399 9.57619 22.441 9.18243L21.4184 7.46682C21.0775 6.87618 21.2764 6.14495 21.8729 5.80747C22.0433 5.69496 22.2706 5.63872 22.4694 5.63872C22.9239 5.63872 23.3216 5.89184 23.5489 6.25748L24.5431 7.97309C24.884 8.56373 24.6852 9.29496 24.0886 9.63244C23.9182 9.74495 23.7194 9.80119 23.4921 9.80119ZM22.4694 6.3981C22.3842 6.3981 22.3274 6.42623 22.2422 6.45435C22.0149 6.59498 21.9581 6.87623 22.0718 7.10125L23.0944 8.81685C23.208 9.01373 23.4921 9.09811 23.7194 8.9856C23.9466 8.8731 24.0318 8.56373 23.8898 8.36684L22.8956 6.6231C22.8103 6.48248 22.6399 6.3981 22.4694 6.3981ZM24.4864 15.4522C23.8047 15.4522 23.265 14.8897 23.265 14.2429V12.246C23.265 11.571 23.8047 11.0366 24.4864 11.0366C25.1398 11.0366 25.7079 11.571 25.7079 12.246V14.2429C25.7079 14.8897 25.1397 15.4522 24.4864 15.4522ZM22.2442 18.7147C22.1874 18.7147 22.1306 18.6866 22.0738 18.6585L20.4262 17.7304C20.2558 17.6179 20.1989 17.3929 20.3126 17.2241C20.3978 17.0272 20.625 16.971 20.8239 17.0835L22.443 18.0116C22.6135 18.096 22.6987 18.3491 22.5851 18.5179C22.5283 18.6304 22.3862 18.7147 22.2442 18.7147ZM22.4716 20.8243C22.2727 20.8243 22.0455 20.7681 21.875 20.6556C21.2785 20.3181 21.0796 19.5868 21.4205 18.9962L22.4432 17.2806C22.642 16.915 23.0681 16.6619 23.4942 16.6619C23.6931 16.6619 23.9203 16.7181 24.0908 16.8306C24.6873 17.1681 24.8861 17.8994 24.5453 18.49L23.551 20.2056C23.3238 20.5993 22.9261 20.8243 22.4716 20.8243ZM23.4942 17.4213C23.3238 17.4213 23.1817 17.5056 23.0965 17.6463L22.0739 19.39C21.9603 19.615 22.0171 19.8962 22.2443 20.0088C22.4716 20.1213 22.7556 20.065 22.8977 19.84L23.8919 18.1244C24.034 17.8994 23.9487 17.6181 23.7215 17.4775C23.6647 17.4494 23.5794 17.4213 23.4942 17.4213ZM18.4947 22.4275C18.3527 22.4275 18.2391 22.3713 18.1538 22.2588L17.2164 20.6276C17.1028 20.4588 17.188 20.2338 17.3585 20.1213C17.5289 20.0088 17.7846 20.0932 17.8698 20.2619L18.8072 21.865C18.9208 22.0619 18.864 22.2869 18.6652 22.3713C18.6084 22.4275 18.5515 22.4275 18.4947 22.4275ZM18.04 24.4805C17.6139 24.4805 17.1878 24.2555 16.9889 23.8898C16.8185 23.6086 16.7617 23.2711 16.8469 22.9617C16.9321 22.6524 17.1594 22.3992 17.415 22.2305L19.1762 21.2461C19.3467 21.1336 19.5739 21.0774 19.7728 21.0774C20.2273 21.0774 20.625 21.3024 20.8522 21.668C20.9943 21.9493 21.0511 22.2868 20.9659 22.5961C20.8807 22.9055 20.6818 23.1586 20.3977 23.3274L18.6365 24.3399C18.4661 24.4242 18.2672 24.4805 18.04 24.4805ZM19.7728 21.8368C19.6875 21.8368 19.6307 21.8368 19.5455 21.893L17.8127 22.8774C17.6991 22.9336 17.6139 23.0461 17.5855 23.1586C17.5571 23.2711 17.5855 23.4118 17.6423 23.5243C17.7559 23.7211 18.0684 23.8055 18.2672 23.693L20.0284 22.6805C20.1137 22.6242 20.1989 22.5118 20.2273 22.3992C20.2557 22.2867 20.2557 22.1461 20.1989 22.0618C20.1137 21.9211 19.9432 21.8368 19.7728 21.8368ZM14.3472 25.463H12.3303C11.6486 25.463 11.1089 24.9287 11.1089 24.2537C11.1089 23.5787 11.6486 23.0443 12.3303 23.0443H14.3472C15.0289 23.0443 15.5687 23.5787 15.5687 24.2537C15.5687 24.9287 15.0289 25.463 14.3472 25.463ZM8.18486 22.4275C8.12804 22.4275 8.07123 22.4275 8.01442 22.3713C7.81557 22.2869 7.75876 22.0619 7.87239 21.865L8.8098 20.2619C8.92343 20.0932 9.15068 20.0088 9.32113 20.1213C9.51998 20.2338 9.57679 20.4588 9.46316 20.6276L8.52574 22.2588C8.46893 22.3713 8.32689 22.4275 8.18486 22.4275ZM8.6396 24.4805C8.44076 24.4805 8.2135 24.4242 8.04305 24.3399L6.28185 23.3274C5.99779 23.1586 5.79894 22.9055 5.71371 22.5961C5.62849 22.2868 5.6853 21.9492 5.85574 21.668C6.05459 21.3024 6.48071 21.0774 6.9068 21.0774C7.13405 21.0774 7.3329 21.1336 7.50335 21.2461L9.26455 22.2305C9.54862 22.3992 9.74746 22.6524 9.8327 22.9617C9.91791 23.2711 9.8611 23.6086 9.71907 23.8898C9.49181 24.2555 9.09411 24.4805 8.6396 24.4805ZM6.90681 21.8368C6.73638 21.8368 6.59434 21.9211 6.50912 22.0618C6.45231 22.1461 6.42391 22.2868 6.45231 22.3992C6.48072 22.5117 6.56594 22.6242 6.67956 22.6805L8.41235 23.693C8.6396 23.8055 8.92368 23.7211 9.06572 23.5243C9.17935 23.2993 9.09413 23.018 8.89529 22.8774L7.13409 21.893C7.07727 21.8367 6.99203 21.8368 6.90681 21.8368ZM4.43538 18.7147C4.29334 18.7147 4.17972 18.6304 4.0945 18.5179C4.00928 18.3491 4.06609 18.096 4.23653 18.0116L5.88409 17.0835C6.05453 16.971 6.28178 17.0272 6.39542 17.2241C6.48064 17.3929 6.42382 17.6179 6.25338 17.7304L4.63423 18.6585C4.54901 18.6866 4.49219 18.7147 4.43538 18.7147ZM4.208 20.8243C3.7819 20.8243 3.35581 20.5993 3.15695 20.2056L2.1343 18.49C1.96386 18.2087 1.93545 17.8712 2.02067 17.5618C2.10589 17.2525 2.30474 16.9993 2.58881 16.8306C2.75925 16.7181 2.9865 16.6619 3.18536 16.6619C3.63987 16.6619 4.03756 16.915 4.26483 17.2806L5.25907 18.9962C5.59995 19.5869 5.4011 20.3181 4.80456 20.6556C4.63413 20.7681 4.40686 20.8243 4.208 20.8243ZM3.18535 17.4213C3.10014 17.4213 3.04332 17.4494 2.9581 17.4775C2.84447 17.5338 2.78767 17.6463 2.75926 17.7588C2.73085 17.8713 2.73085 18.0119 2.78766 18.1244L3.81031 19.84C3.92394 20.065 4.23641 20.1212 4.43527 20.0087C4.66252 19.8962 4.74774 19.615 4.60571 19.39L3.61147 17.6462C3.52625 17.5056 3.3558 17.4213 3.18535 17.4213ZM2.22147 15.4522C1.53973 15.4522 1 14.8897 1 14.2429V12.246C1 11.571 1.53973 11.0366 2.22147 11.0366C2.87484 11.0366 3.44293 11.571 3.44293 12.246V14.2429C3.44293 14.8897 2.87479 15.4522 2.22147 15.4522ZM2.22147 11.7678C1.96581 11.7678 1.73856 11.9928 1.73856 12.246V14.2428C1.73856 14.496 1.96581 14.6928 2.22147 14.6928C2.47712 14.6928 2.67597 14.496 2.67597 14.2428V12.246C2.67597 11.9928 2.47712 11.7678 2.22147 11.7678ZM6.05462 9.43543C5.99781 9.43543 5.941 9.43543 5.88419 9.40731L4.23663 8.47918C4.06619 8.36668 4.00937 8.14169 4.09459 7.9448C4.20822 7.77606 4.43547 7.7198 4.63433 7.80418L6.25348 8.76043C6.42391 8.8448 6.48073 9.0698 6.39551 9.26668C6.31029 9.37919 6.19665 9.43543 6.05462 9.43543ZM3.18729 9.80119C2.98845 9.80119 2.76119 9.74494 2.59074 9.63244C1.99419 9.29495 1.79537 8.56368 2.13624 7.97309L3.15888 6.25748C3.35773 5.89186 3.78385 5.63872 4.20994 5.63872C4.43719 5.63872 4.63604 5.69497 4.80649 5.80747C5.40305 6.14496 5.60187 6.87623 5.261 7.46682L4.26676 9.18243C4.03951 9.57617 3.6418 9.80119 3.18729 9.80119ZM4.20994 6.3981C4.0395 6.3981 3.89747 6.48248 3.81225 6.6231L2.7896 8.36684C2.67598 8.56371 2.73279 8.87309 2.96004 8.9856C3.18729 9.09811 3.47137 9.01373 3.61341 8.81685L4.60765 7.10125C4.74968 6.87625 4.66447 6.59499 4.43721 6.45435C4.3804 6.42623 4.29516 6.3981 4.20994 6.3981ZM9.15059 6.39801C9.00856 6.39801 8.89493 6.34176 8.80971 6.20113L7.87229 4.59803C7.75867 4.42929 7.81548 4.17616 8.01433 4.09178C8.18477 3.97928 8.41202 4.03553 8.52565 4.23241L9.46307 5.8355C9.57669 6.00425 9.51988 6.25738 9.32104 6.34176C9.26422 6.36988 9.2074 6.39801 9.15059 6.39801ZM6.90643 5.38742C6.48033 5.38742 6.05424 5.16242 5.85537 4.79678C5.68493 4.51553 5.62812 4.17802 5.71334 3.86866C5.79856 3.55929 5.9974 3.30615 6.28148 3.13743L8.04268 2.15305C8.21312 2.04055 8.44037 1.9843 8.63923 1.9843C9.09374 1.9843 9.49142 2.2093 9.7187 2.57494C9.86073 2.85619 9.91754 3.19371 9.83233 3.50306C9.74711 3.81244 9.54826 4.06557 9.26418 4.23429L7.50298 5.2468C7.33254 5.33117 7.13369 5.38742 6.90643 5.38742ZM8.63922 2.74369C8.554 2.74369 8.49718 2.74369 8.41196 2.79994L6.67917 3.78432C6.56555 3.84057 6.48033 3.95307 6.45192 4.06557C6.42352 4.17807 6.45192 4.31869 6.50874 4.43119C6.62236 4.62807 6.93484 4.71244 7.1337 4.59994L8.8949 3.58743C8.98012 3.53118 9.06533 3.41868 9.09374 3.30618C9.12215 3.19368 9.12215 3.05306 9.06534 2.96868C8.98012 2.82806 8.80966 2.74369 8.63922 2.74369ZM13.3529 19.3896C9.91571 19.3896 7.1338 16.6334 7.1338 13.2322C7.1338 9.85726 9.91765 7.10264 13.3529 7.10264C16.7616 7.10264 19.5438 9.85889 19.5438 13.2322C19.5438 16.6353 16.76 19.3896 13.3529 19.3896ZM13.3529 7.83224C10.3418 7.83224 7.90076 10.251 7.90076 13.2303C7.90076 16.2115 10.3437 18.6284 13.3529 18.6284C16.3355 18.6284 18.805 16.2096 18.805 13.2303C18.805 10.2491 16.3336 7.83224 13.3529 7.83224Z" stroke="#233751" stroke-width="0.4"/>
</svg>
