<svg width="48" height="48" viewBox="0 0 48 48" fill="none" xmlns="http://www.w3.org/2000/svg">
<path d="M46 20.1212C46 17.2004 44.8527 14.4552 42.7691 12.3905C38.9458 8.60013 32.991 8.18359 28.694 11.1319V3.04514H32.2589C32.6893 3.04514 33.0384 2.69961 33.0384 2.27257C33.0384 1.84553 32.6898 1.5 32.2589 1.5H11.8864C11.456 1.5 11.1069 1.84553 11.1069 2.27257C11.1069 2.69961 11.4555 3.04514 11.8864 3.04514H15.4513V19.8911C15.4513 20.7567 15.2414 21.4678 14.7712 22.1973L2.5901 41.0775C1.79498 42.3101 1.80355 43.6557 2.61482 44.7683C3.41701 45.8689 4.77215 46.5 6.33313 46.5H37.8127C39.3736 46.5 40.7283 45.8689 41.531 44.7683C42.3422 43.6552 42.3513 42.3101 41.5557 41.0775L35.0837 31.0466C37.8702 31.0181 40.6486 29.955 42.7696 27.8518C44.8527 25.7872 46 23.0414 46 20.1212ZM40.2666 43.8638C39.7611 44.5573 38.8666 44.9549 37.8121 44.9549H6.33263C5.27818 44.9549 4.38367 44.5573 3.87814 43.8638C3.43668 43.2587 3.44526 42.6192 3.90286 41.9096L16.084 23.0294C16.7162 22.0503 17.0103 21.0527 17.0103 19.8911V3.04514H27.135V12.425C23.0529 16.5058 22.8884 23.0064 26.639 27.2843L16.3383 37.4937C16.034 37.7952 16.034 38.2843 16.3383 38.5858C16.4906 38.7368 16.6899 38.8123 16.8892 38.8123C17.0885 38.8123 17.2883 38.7368 17.4401 38.5858L27.7409 28.3764C29.3165 29.733 31.1898 30.5726 33.1353 30.8951L40.2419 41.9096C40.7 42.6192 40.7081 43.2582 40.2666 43.8638ZM28.2707 26.7597C24.5776 23.0994 24.5776 17.1434 28.2707 13.4826C30.1172 11.6524 32.5429 10.7373 34.9687 10.7373C37.3944 10.7373 39.8206 11.6524 41.6672 13.4826C43.4562 15.2557 44.4415 17.6134 44.4415 20.1212C44.4415 22.6289 43.4562 24.9866 41.6672 26.7597C37.9741 30.4191 31.9653 30.4201 28.2707 26.7597Z" fill="#233751"/>
</svg>
