<svg width="42" height="50" viewBox="0 0 42 50" fill="none" xmlns="http://www.w3.org/2000/svg">
<path d="M40.8924 39.9285C40.7914 39.7289 40.6302 39.552 40.4229 39.4135C40.2156 39.2749 39.9685 39.1789 39.7035 39.1338L38.6688 38.9452C37.5372 38.2 36.6098 37.279 35.9435 36.239C35.8776 36.1423 35.7803 36.0614 35.6616 36.0046C35.6564 35.8209 35.6799 35.6373 35.7315 35.4581C37.0413 32.2558 38.4791 28.6337 38.9613 26.1788C38.9652 26.1587 38.9671 26.1384 38.9671 26.118V26.0753C38.9671 26.0575 38.9657 26.0398 38.9628 26.0222C38.7382 24.7122 38.0852 23.8672 36.9666 23.4389C36.9481 23.432 36.9292 23.4258 36.9098 23.4206L35.8916 23.1476C32.5818 22.2467 29.4447 21.3927 26.1082 21.3927H26.1067C26.7304 19.3898 27.0096 17.3291 26.9367 15.2668C27.1495 15.2357 27.3523 15.1714 27.5336 15.0777C27.7149 14.984 27.8709 14.8627 27.9928 14.7209C28.1158 14.5844 28.2064 14.4311 28.2601 14.2687C28.7221 14.4968 29.2144 14.6839 29.728 14.8267C31.1066 15.1827 31.7823 14.6639 32.4105 14.0519C33.077 13.3802 33.6285 12.6416 34.0507 11.8552C34.3151 11.3908 34.5481 10.9155 34.7487 10.4315C34.8321 10.2361 34.9073 10.0406 34.9825 9.84534L35.0689 9.62194C35.0902 9.55825 35.1111 9.46955 35.1329 9.37161C35.1554 9.25269 35.1863 9.13487 35.2255 9.0187C36.1142 8.20899 36.3524 7.05966 35.7902 6.28305C35.3308 5.66134 34.447 5.39677 33.3642 5.55474C33.1459 5.60374 32.946 5.69425 32.7817 5.81842C32.6175 5.94258 32.4939 6.09665 32.4217 6.26728C32.4096 6.28633 32.3979 6.30518 32.3863 6.32366C31.3026 6.91728 31.8391 8.20862 32.1146 8.78261C31.8173 9.56538 30.7724 10.6008 29.8065 11.5169C29.722 11.5971 29.6811 11.7007 29.6928 11.8049C29.7046 11.909 29.768 12.0052 29.8691 12.0722C29.9702 12.1393 30.1008 12.1717 30.2321 12.1624C30.3633 12.1531 30.4846 12.1028 30.5691 12.0226C31.9545 10.7078 32.8646 9.71836 33.1197 8.84938C33.1425 8.77181 33.1353 8.69059 33.0989 8.61636C32.6327 7.6708 32.6021 7.12413 33.0048 6.94576C33.083 6.9108 33.148 6.85983 33.193 6.79817C33.2328 6.74275 33.2721 6.68099 33.3118 6.6171C33.3657 6.5307 33.4778 6.35098 33.5423 6.33021C34.2204 6.22977 34.6871 6.34907 34.9306 6.67849C35.2755 7.15435 35.0757 7.95502 34.4751 8.50226C34.292 8.72112 34.1816 8.9732 34.1545 9.23501C34.1384 9.30582 34.1253 9.37028 34.1147 9.4026L34.0322 9.61504C33.9599 9.80303 33.8877 9.99122 33.8062 10.1825C33.6159 10.642 33.3947 11.093 33.1435 11.5337C32.7565 12.2574 32.2506 12.9373 31.6387 13.5556C31.0416 14.1373 30.7767 14.2686 30.0403 14.0786C29.2477 13.8345 28.5018 13.5038 27.8244 13.0961C27.7247 13.0409 27.6029 13.0167 27.4821 13.028C27.3613 13.0393 27.25 13.0854 27.1691 13.1574C27.0883 13.2295 27.0436 13.3226 27.0435 13.4191C27.0434 13.5156 27.0879 13.6087 27.1686 13.6809C27.258 13.7614 27.3083 13.8645 27.3106 13.9717C27.3129 14.079 27.2671 14.1834 27.1812 14.2662C27.1247 14.3456 27.038 14.4086 26.9334 14.4463C26.8289 14.4841 26.712 14.4945 26.5996 14.4762C26.5218 14.4512 26.4374 14.4422 26.3541 14.4501C26.2708 14.458 26.1914 14.4825 26.1233 14.5213C26.0552 14.5602 26.0006 14.6121 25.9646 14.6722C25.9286 14.7323 25.9124 14.7986 25.9175 14.8651C26.0577 17.1681 25.7445 19.4744 24.9891 21.7008C24.9701 21.7604 24.9689 21.8226 24.9857 21.8826C25.0024 21.9426 25.0366 21.9986 25.0856 22.0462C25.1351 22.0933 25.1974 22.1308 25.2678 22.1559C25.3382 22.181 25.4149 22.1931 25.4921 22.1913C28.8883 22.0735 32.134 22.9579 35.5714 23.8937L36.561 24.1592C37.3425 24.4678 37.7917 25.084 37.9722 26.0946C37.4944 28.4921 36.0779 32.0581 34.7778 35.2388C34.7021 35.4864 34.6659 35.7406 34.67 35.9953C33.9577 36.0169 33.2076 36.0153 32.4104 35.9918C32.9592 34.7347 33.2166 33.4091 33.1702 32.0793C32.967 30.5073 33.3289 28.9218 34.2141 27.5062C34.2248 27.4919 34.2345 27.4769 34.2442 27.4608C34.2891 27.387 34.304 27.304 34.2866 27.2232C34.2693 27.1425 34.2206 27.068 34.1475 27.0102C34.0743 26.9524 33.9802 26.9142 33.8783 26.9008C33.7765 26.8874 33.6719 26.8995 33.5791 26.9355C33.3007 26.9632 32.3276 26.9474 31.8463 26.9393C31.386 26.9316 31.1396 26.9289 31.028 26.9347C30.2281 26.9786 29.4422 27.0806 28.6825 27.1787L28.4788 27.2052C27.1864 27.3426 25.8804 27.3818 24.5786 27.3222C24.0198 27.3111 23.4615 27.3015 22.9016 27.3038C22.7911 27.3045 22.684 27.3344 22.5972 27.3889C22.5105 27.4433 22.4492 27.5191 22.4228 27.6043C21.7505 29.7914 19.6622 32.3079 17.6374 34.7485C17.4734 34.9548 17.2995 35.1661 17.1268 35.3762L17.0443 35.4763L16.5525 35.8873C13.1564 37.9058 9.92239 40.0904 6.8693 42.4285C6.36011 41.9151 5.90767 41.3679 5.517 40.7929C5.54389 40.7777 5.56877 40.7604 5.59126 40.7413C7.03982 39.3779 8.32658 37.9113 9.43516 36.3602C10.0946 35.6321 11.425 34.8732 13.6065 33.9777C13.9483 33.8755 14.25 33.7036 14.4811 33.4792C14.7122 33.2548 14.8645 32.986 14.9226 32.7C15.2905 29.9811 15.8886 27.9175 16.8047 26.2061C16.8528 26.1164 16.8572 26.0158 16.8171 25.9237C15.7906 23.56 16.6148 21.8087 19.4104 20.4123C19.5121 20.3616 19.5871 20.2833 19.6217 20.192C19.9605 19.1808 19.9021 18.1117 19.4543 17.1275C19.2991 16.7375 19.1148 16.3655 18.9367 16.0057C18.6152 15.4157 18.3693 14.8014 18.2028 14.1723C18.197 14.1419 18.1921 14.0848 18.1848 14.0111C18.1952 13.5304 18.0548 13.0553 17.7764 12.6283C17.7064 12.556 17.607 12.5052 17.4951 12.4844C17.3831 12.4637 17.2656 12.4744 17.1625 12.5146C14.951 13.3803 13.1396 14.1477 11.6592 14.8447C11.6529 14.834 11.6517 14.8217 11.6404 14.8131C11.6185 14.7961 11.5895 14.7862 11.5589 14.7853C11.5283 14.7843 11.4984 14.7925 11.475 14.8081L11.4066 14.8519C11.3847 14.8668 11.3705 14.8876 11.3666 14.9102C11.3627 14.9329 11.3694 14.9559 11.3855 14.9749C11.0729 15.1244 10.7701 15.2719 10.4883 15.4152C10.4038 15.4582 10.3377 15.5206 10.2986 15.5939C9.91491 16.3151 8.7873 18.6373 8.60612 19.0981C8.58451 19.153 8.57833 19.211 8.58801 19.2681C8.59769 19.3251 8.62299 19.3797 8.66215 19.4281C9.25809 20.1657 9.43321 20.6485 9.18241 20.863C9.14762 20.8927 9.11883 20.9266 9.09703 20.9633L8.72229 21.5965C8.68312 21.6677 8.61928 21.7287 8.53817 21.7723C8.45707 21.8159 8.36203 21.8403 8.26411 21.8428C7.67212 21.8538 7.08877 21.7286 6.58447 21.4824C6.48793 21.1654 6.47424 20.836 6.54424 20.5147C6.61423 20.1933 6.76643 19.8867 6.99146 19.6138C7.01423 19.5819 7.03122 19.5476 7.04191 19.512C7.1872 19.0329 8.23355 16.4675 8.86029 15.0232C8.94793 14.7067 9.17669 14.4259 9.5045 14.2325C11.0051 13.5596 14.509 11.7424 16.6226 10.4867L19.8116 8.4545C19.8557 8.42627 19.8934 8.39231 19.9232 8.35406C20.137 8.07371 20.239 7.74863 20.2157 7.42147C20.1925 7.09431 20.0451 6.78038 19.7929 6.52086C19.7671 6.48877 19.7355 6.45981 19.6993 6.43485C19.5877 6.35808 19.4606 6.28111 19.3306 6.20241C19.238 6.14641 19.1433 6.08965 19.0531 6.03077C18.9942 5.95387 18.9039 5.89528 18.7972 5.86472C18.6906 5.83416 18.5739 5.83348 18.4667 5.86278C18.2289 5.92863 17.979 5.96252 17.7271 5.96303C16.6507 5.96303 15.7749 5.38346 15.7749 4.67092C15.7749 3.95858 16.6507 3.37901 17.7271 3.37901C17.7444 3.37956 17.7615 3.38091 17.7786 3.38305C17.8108 3.38612 17.8431 3.38901 17.8758 3.39074C17.9506 3.39473 18.0256 3.38524 18.0951 3.36299C18.1646 3.34073 18.2269 3.30629 18.2772 3.26224C18.3276 3.21818 18.3647 3.16566 18.3858 3.1086C18.407 3.05155 18.4115 2.99144 18.3992 2.93278L18.3815 2.84812C18.6238 2.30222 19.742 1.93411 20.7163 1.81943C21.6826 1.70995 22.6648 1.90069 23.4581 2.35186C23.5066 2.39035 23.5595 2.43634 23.608 2.47847C23.6948 2.55355 23.815 2.59906 23.9432 2.60547L26.895 2.72208L24.9037 3.14984C24.8391 3.16378 24.7788 3.18792 24.7262 3.2208C24.6737 3.25368 24.6301 3.29462 24.598 3.34119C24.5659 3.38775 24.5459 3.43898 24.5394 3.4918C24.5328 3.54462 24.5397 3.59795 24.5597 3.64859C24.685 3.93951 24.6902 4.25452 24.5748 4.54797C24.5513 4.60665 24.5455 4.66887 24.5578 4.72965C24.5701 4.79043 24.6001 4.84808 24.6456 4.89798L25.1501 5.45177L25.1156 5.45466C24.9939 5.46518 24.8814 5.51099 24.7997 5.58329C24.7179 5.6556 24.6727 5.7493 24.6728 5.84643C24.6728 5.86829 24.6744 5.89013 24.6776 5.91184C24.6771 5.93345 24.6704 5.95468 24.6582 5.97399C24.6281 6.02722 24.6132 6.0851 24.6147 6.14344C24.6162 6.20178 24.6341 6.25912 24.6669 6.31132C24.6867 6.34297 24.7118 6.37231 24.7416 6.39849C24.6722 6.48402 24.6395 6.58508 24.6485 6.68656C24.6495 6.77897 24.6784 6.86985 24.7329 6.95153C24.5069 7.02017 24.258 7.02499 24.0281 6.96519C23.9047 6.92834 23.768 6.93187 23.648 6.97499C23.5279 7.01811 23.4344 7.0973 23.388 7.19513C23.3415 7.29296 23.346 7.40142 23.4003 7.49665C23.4547 7.59188 23.5545 7.66608 23.6778 7.70293C23.9698 7.78096 24.2794 7.80902 24.5861 7.78528C24.8928 7.76153 25.1896 7.68651 25.4571 7.56516C25.5577 7.53002 25.6467 7.4771 25.7175 7.41043C25.7882 7.34376 25.8388 7.26512 25.8653 7.18054C25.8918 7.09596 25.8936 7.0077 25.8704 6.9225C25.8472 6.83731 25.7998 6.75746 25.7317 6.68906C25.802 6.62085 25.8509 6.54035 25.8744 6.45421C25.8978 6.36807 25.8951 6.27874 25.8666 6.19358C25.8641 6.18609 25.8617 6.17838 25.8588 6.17087C25.967 6.14191 26.0652 6.09329 26.1455 6.02889C26.2258 5.9645 26.2861 5.88611 26.3215 5.79997C26.3569 5.71383 26.3664 5.62232 26.3493 5.53274C26.3322 5.44316 26.289 5.35799 26.2231 5.284L25.5886 4.58744C25.6579 4.33261 25.6694 4.07001 25.6226 3.81198L27.155 3.48293C27.3777 3.4347 27.5716 3.32534 27.7021 3.17431C27.8327 3.02328 27.8914 2.84039 27.8679 2.65821C27.8444 2.47603 27.7401 2.30639 27.5737 2.1795C27.4072 2.0526 27.1894 1.9767 26.959 1.9653L24.2022 1.82868C24.1882 1.81694 24.1741 1.80559 24.1605 1.79482C24.1488 1.78558 24.1028 1.75383 24.0906 1.74575C23.591 1.45012 23.0227 1.2356 22.4184 1.11449C21.814 0.99338 21.1855 0.968049 20.5688 1.03995C19.2909 1.19043 17.8305 1.67841 17.4378 2.60088C16.7495 2.62131 16.0956 2.84489 15.6043 3.22779C15.1129 3.6107 14.8195 4.12536 14.7814 4.67094C14.7814 5.81797 16.1028 6.75121 17.7271 6.75121C17.9822 6.75104 18.2363 6.72682 18.4841 6.67905C18.5647 6.73023 18.6474 6.78027 18.7286 6.82953C18.8203 6.88494 18.9105 6.93921 18.993 6.99328C19.1173 7.11784 19.1948 7.26765 19.2168 7.42556C19.2387 7.58347 19.2041 7.74308 19.1169 7.88611L16.0135 9.86398C13.9419 11.0947 10.4912 12.8848 9.01552 13.5464C8.47413 13.8328 8.0845 14.2672 7.9209 14.7669C7.36061 16.0578 6.30722 18.6213 6.09329 19.2732C5.79748 19.6498 5.60742 20.0726 5.53606 20.5127C5.4647 20.9528 5.51371 21.4 5.67975 21.8237C5.7343 21.9428 5.83899 22.0434 5.97614 22.1083C6.65477 22.4619 7.45244 22.6441 8.26412 22.6309C8.55088 22.6283 8.83079 22.5611 9.07123 22.4371C9.31166 22.313 9.50273 22.1374 9.62215 21.9305L9.96681 21.3483C10.6855 20.6588 10.0258 19.675 9.62676 19.1635C9.90714 18.5312 10.7607 16.7694 11.1548 16.013C12.6673 15.252 14.6186 14.4005 17.1016 13.4184C17.1365 13.5798 17.1676 13.7982 17.1945 14.0722C17.2049 14.1788 17.2142 14.2602 17.2236 14.3055C17.4012 14.9876 17.6654 15.6538 18.0121 16.2937C18.1841 16.6413 18.3619 17.0005 18.5065 17.364C18.8657 18.1537 18.9389 19.0075 18.7177 19.8285C15.7404 21.3716 14.7652 23.4587 15.8173 26.0364C14.7996 28.1438 14.1663 30.3556 13.9366 32.6049C13.9194 32.7046 13.8677 33.0075 13.1658 33.2715C10.7922 34.2455 9.39295 35.0564 8.60418 35.9296C7.55649 37.3896 6.35309 38.7757 5.00719 40.0728C4.93517 40.0821 4.86408 40.0954 4.79447 40.1128C4.73228 40.1297 4.66886 40.1436 4.60456 40.1544C3.79736 40.0129 2.95904 40.0283 2.16089 40.199C1.87523 40.2767 1.62292 40.4166 1.43288 40.6027C1.24284 40.7889 1.12276 41.0138 1.0864 41.2516C0.895785 41.9137 1.02308 42.6084 1.44343 43.2C1.21758 44.9194 1.62332 46.6539 2.61175 48.1945C2.67872 48.2974 2.75903 48.3946 2.85139 48.4843C3.11288 48.7439 3.48441 48.9192 3.89677 48.9777C3.99738 48.9922 4.0994 48.9996 4.20165 49C4.40979 49.0008 4.61564 48.9655 4.80485 48.8967C4.99407 48.828 5.1621 48.7273 5.29725 48.6017C5.47289 48.4393 5.59642 48.2456 5.65732 48.0371C5.71822 47.8286 5.71468 47.6116 5.647 47.4044L5.39159 46.5878C5.719 45.4496 6.33486 44.3762 7.20171 43.4329C7.27019 43.3532 7.31383 43.2618 7.32905 43.1662C10.4296 40.7814 13.7183 38.5556 17.1751 36.5022C17.199 36.4884 17.2214 36.473 17.2418 36.456L17.7958 35.9934C17.8165 35.9759 17.8354 35.957 17.852 35.9369L17.9588 35.8068C18.1344 35.5932 18.3112 35.3785 18.4725 35.1753C20.4497 32.7923 22.4918 30.3317 23.2883 28.0915C23.7103 28.0934 24.1323 28.1019 24.5544 28.11C25.9182 28.1705 27.2862 28.1279 28.6399 27.983L28.8426 27.9568C29.6139 27.8567 30.3426 27.7624 31.1012 27.7209C31.175 27.7163 31.5213 27.7224 31.8255 27.7274C32.2999 27.7351 32.6754 27.7409 32.9747 27.7409C32.2774 29.133 32.0046 30.6361 32.1786 32.1277C32.2157 33.5016 31.9154 34.8682 31.2943 36.1511C31.21 36.1764 31.1364 36.2201 31.0818 36.2771C30.5653 36.7825 30.2071 37.3778 30.0365 38.0143C30.0067 38.1846 30.0245 38.3581 30.0887 38.5224C30.1529 38.6867 30.2619 38.8377 30.408 38.9648C31.1003 39.4996 32.0109 39.8201 32.9752 39.8684C35.1562 41.023 37.2523 41.6183 39.2135 41.6383C39.3636 41.6396 39.5133 41.6273 39.6598 41.6014C40.067 41.5282 40.4294 41.3451 40.6853 41.0834C40.8455 40.9226 40.949 40.731 40.9854 40.5281C41.0218 40.3252 40.9897 40.1183 40.8924 39.9285ZM4.39498 46.5239C4.38161 46.5796 4.3836 46.637 4.4008 46.6921L4.68167 47.5903C4.7106 47.6734 4.71436 47.7607 4.69265 47.8452C4.67095 47.9297 4.62438 48.0089 4.55676 48.0764C4.49848 48.1322 4.42127 48.1735 4.33428 48.1956C4.24729 48.2177 4.15414 48.2196 4.06584 48.201C3.88877 48.1742 3.73004 48.0972 3.61931 47.9844C3.57303 47.939 3.53242 47.8901 3.49804 47.8385C2.57553 46.4026 2.20967 44.7822 2.44659 43.1815C2.4585 43.1059 2.44249 43.0292 2.40051 42.9606C2.20936 42.7232 2.08168 42.4572 2.02536 42.179C1.96903 41.9009 1.98527 41.6165 2.07307 41.3435C2.08866 41.2538 2.13496 41.1692 2.20693 41.0989C2.2789 41.0286 2.37379 40.9753 2.48128 40.9448C3.12566 40.8194 3.79807 40.815 4.44495 40.9321C4.45747 40.9337 4.46938 40.9328 4.48181 40.9339C4.98236 41.7067 5.5862 42.4346 6.28295 43.1049C5.36519 44.13 4.72259 45.2937 4.39498 46.5239ZM39.8936 40.6069C39.7795 40.7218 39.6187 40.8016 39.4386 40.8328C39.3668 40.8452 39.2934 40.851 39.2198 40.8502C37.4279 40.8317 35.4749 40.261 33.4152 39.153C33.3342 39.1098 33.2391 39.0862 33.1416 39.0853C32.4101 39.0631 31.7111 38.8398 31.1643 38.4538C31.1103 38.4127 31.0691 38.3623 31.0438 38.3065C31.0186 38.2506 31.01 38.1909 31.0188 38.132C31.1662 37.6296 31.4567 37.1607 31.8681 36.7612C32.4767 36.7859 33.0636 36.8008 33.6228 36.8008C34.1603 36.8008 34.6736 36.7865 35.1753 36.7636C35.9087 37.8684 36.921 38.8416 38.1492 39.6225C38.2056 39.6568 38.2706 39.6811 38.3399 39.6937L39.4789 39.9015C39.5864 39.918 39.6872 39.9553 39.7723 40.01C39.8574 40.0647 39.9242 40.1351 39.9669 40.2152C40.0024 40.2793 40.0144 40.3501 40.0015 40.4194C39.9885 40.4888 39.9511 40.5538 39.8936 40.6069Z" fill="#233751" stroke="black" stroke-width="0.2"/>
</svg>
