<svg width="287" height="105" viewBox="0 0 287 105" fill="none" xmlns="http://www.w3.org/2000/svg">
<g clip-path="url(#clip0_102_771)">
<g filter="url(#filter0_d_102_771)">
<path d="M280.547 1.41016H6.83029C4.1626 1.41016 2 3.5838 2 6.26512V98.914C2 101.595 4.1626 103.769 6.83029 103.769H280.547C283.215 103.769 285.377 101.595 285.377 98.914V6.26512C285.377 3.5838 283.215 1.41016 280.547 1.41016Z" fill="url(#paint0_linear_102_771)"/>
<path d="M277.729 6.87109H9.24544C7.57812 6.87109 6.2265 8.22962 6.2265 9.90544V95.2719C6.2265 96.9477 7.57812 98.3062 9.24544 98.3062H277.729C279.397 98.3062 280.748 96.9477 280.748 95.2719V9.90544C280.748 8.22962 279.397 6.87109 277.729 6.87109Z" stroke="url(#paint1_linear_102_771)"/>
</g>
<g filter="url(#filter1_d_102_771)">
<path d="M85.5365 12.2578H18.7174C16.0497 12.2578 13.8871 14.3978 13.8871 17.0376V87.1412C13.8871 89.781 16.0497 91.921 18.7174 91.921H85.5365C88.2041 91.921 90.3667 89.781 90.3667 87.1412V17.0376C90.3667 14.3978 88.2041 12.2578 85.5365 12.2578Z" fill="#111111"/>
<path d="M85.5365 13.0547H18.7174C16.4943 13.0547 14.6921 14.838 14.6921 17.0378V87.1414C14.6921 89.3413 16.4943 91.1246 18.7174 91.1246H85.5365C87.7595 91.1246 89.5617 89.3413 89.5617 87.1414V17.0378C89.5617 14.838 87.7595 13.0547 85.5365 13.0547Z" stroke="url(#paint2_linear_102_771)" stroke-width="4"/>
<path d="M43.0411 40.8002H45.4112L45.7976 37.9196H43.4533L43.0411 40.8002ZM42.0106 47.7086H39.6922L40.3619 43.1455H38.2496V40.8002H40.7483L41.1605 37.9196H38.9966V35.5743H41.5212L42.191 31.1387H44.458L43.814 35.5743H46.184L46.8281 31.1387H49.1208L48.4768 35.5743H50.5377V37.9196H48.0904L47.7039 40.8002H49.8164V43.1455H47.2918L46.6477 47.7086H44.3292L44.999 43.1455H42.6547L42.0106 47.7086ZM57.54 47.7086V34.5801H57.4885L54.2941 36.0842L53.65 33.178L58.1068 31.1387H61.327V47.7086H57.54Z" fill="url(#paint3_linear_102_771)"/>
<path d="M42.5589 69.2174H37.9731L32.4086 52.0357H36.7108L38.8233 59.301C39.4158 61.3658 39.9568 63.3032 40.3692 65.4446H40.4464C40.8844 63.3797 41.4254 61.3403 42.0179 59.3774L44.2334 52.0357H48.4068L42.5589 69.2174ZM50.2805 52.0357H54.1963V69.2174H50.2805V52.0357ZM57.6008 69.2174V52.2651C58.8116 52.0612 60.5119 51.9082 62.9077 51.9082C65.3293 51.9082 67.0553 52.3671 68.2146 53.2848C69.3481 54.1515 70.0694 55.5791 70.0694 57.2616C70.0694 58.9441 69.5284 60.3971 68.4722 61.3403C67.1326 62.564 65.149 63.1503 62.8304 63.1503C62.3152 63.1503 61.8515 63.1248 61.4908 63.0483V69.2174H57.6008ZM61.4908 54.9928V60.0657C61.8257 60.1422 62.2122 60.1677 62.8047 60.1677C64.8914 60.1677 66.1794 59.1225 66.1794 57.389C66.1794 55.8085 65.0717 54.8653 63.088 54.8653C62.3152 54.8653 61.7742 54.9163 61.4908 54.9928Z" fill="url(#paint4_linear_102_771)"/>
<path d="M42.5589 69.2174H37.9731L32.4086 52.0357H36.7108L38.8233 59.301C39.4158 61.3658 39.9568 63.3032 40.3692 65.4446H40.4464C40.8844 63.3797 41.4254 61.3403 42.0179 59.3774L44.2334 52.0357H48.4068L42.5589 69.2174ZM50.2805 52.0357H54.1963V69.2174H50.2805V52.0357ZM57.6008 69.2174V52.2651C58.8116 52.0612 60.5119 51.9082 62.9077 51.9082C65.3293 51.9082 67.0553 52.3671 68.2146 53.2848C69.3481 54.1515 70.0694 55.5791 70.0694 57.2616C70.0694 58.9441 69.5284 60.3971 68.4722 61.3403C67.1326 62.564 65.149 63.1503 62.8304 63.1503C62.3152 63.1503 61.8515 63.1248 61.4908 63.0483V69.2174H57.6008ZM61.4908 54.9928V60.0657C61.8257 60.1422 62.2122 60.1677 62.8047 60.1677C64.8914 60.1677 66.1794 59.1225 66.1794 57.389C66.1794 55.8085 65.0717 54.8653 63.088 54.8653C62.3152 54.8653 61.7742 54.9163 61.4908 54.9928Z" fill="black" fill-opacity="0.2"/>
</g>
<path d="M98.6185 15.0469V89.1336" stroke="url(#paint5_linear_102_771)" stroke-dasharray="2 2"/>
<g filter="url(#filter2_d_102_771)">
<path d="M110.274 31.3773V20.9383H106.758V18.491H116.766V20.9383H113.211V31.3773H110.274ZM117.961 18.491H120.898V23.4429H125.747V18.491H128.684V31.3773H125.747V25.9857H120.898V31.3773H117.961V18.491ZM130.896 18.491H133.833V31.3773H130.896V18.491ZM135.497 30.7655L136.096 28.3756C136.869 28.7771 138.105 29.1786 139.361 29.1786C140.714 29.1786 141.429 28.6242 141.429 27.7829C141.429 26.9799 140.81 26.5211 139.245 25.9857C137.081 25.221 135.652 24.0356 135.652 22.1619C135.652 19.9632 137.526 18.2998 140.578 18.2998C142.066 18.2998 143.129 18.5866 143.902 18.9499L143.245 21.2824C142.742 21.0339 141.796 20.6706 140.54 20.6706C139.265 20.6706 138.646 21.2633 138.646 21.9133C138.646 22.7355 139.361 23.0987 141.062 23.7297C143.361 24.5709 144.423 25.7563 144.423 27.5726C144.423 29.7331 142.762 31.5685 139.187 31.5685C137.7 31.5685 136.231 31.167 135.497 30.7655ZM154.551 33.0407H152.639V31.2244C151.344 31.167 150.088 30.8038 149.354 30.4022L149.934 28.1653C150.745 28.605 151.885 29.0065 153.141 29.0065C154.261 29.0065 155.015 28.5668 155.015 27.8212C155.015 27.0946 154.397 26.6358 152.948 26.1578C150.88 25.4695 149.47 24.5135 149.47 22.659C149.47 20.9574 150.668 19.6382 152.735 19.2558V17.4395H154.629V19.1219C155.904 19.1602 156.773 19.447 157.449 19.7529L156.87 21.9133C156.387 21.6839 155.479 21.2442 154.088 21.2442C152.832 21.2442 152.426 21.7986 152.426 22.334C152.426 22.9458 153.102 23.3664 154.764 23.9591C157.063 24.7621 157.971 25.8136 157.971 27.5535C157.971 29.2551 156.773 30.7082 154.551 31.0714V33.0407ZM167.819 18.9499V21.3398H162.95L162.68 23.2517C162.95 23.2134 163.182 23.2134 163.491 23.2134C164.689 23.2134 165.925 23.4811 166.795 24.112C167.742 24.743 168.321 25.7754 168.321 27.2285C168.321 29.5419 166.312 31.5876 162.931 31.5876C161.404 31.5876 160.129 31.2435 159.434 30.8802L159.975 28.7006C160.516 28.9683 161.655 29.3125 162.795 29.3125C164.013 29.3125 165.307 28.7389 165.307 27.4197C165.307 26.1387 164.283 25.3548 161.771 25.3548C161.076 25.3548 160.593 25.393 160.09 25.4695L160.902 18.9499H167.819ZM174.363 18.7396C177.705 18.7396 179.038 21.703 179.038 25.1062C179.038 28.9301 177.473 31.5876 174.285 31.5876C171.04 31.5876 169.61 28.7006 169.59 25.1827C169.59 21.5692 171.117 18.7396 174.363 18.7396ZM174.324 20.9383C173.261 20.9383 172.527 22.2766 172.527 25.1827C172.527 28.0315 173.223 29.3889 174.343 29.3889C175.483 29.3889 176.102 27.9741 176.102 25.1445C176.102 22.3913 175.503 20.9383 174.324 20.9383ZM184.694 18.7396C188.036 18.7396 189.369 21.703 189.369 25.1062C189.369 28.9301 187.804 31.5876 184.616 31.5876C181.37 31.5876 179.941 28.7006 179.921 25.1827C179.921 21.5692 181.448 18.7396 184.694 18.7396ZM184.655 20.9383C183.592 20.9383 182.858 22.2766 182.858 25.1827C182.858 28.0315 183.554 29.3889 184.674 29.3889C185.814 29.3889 186.432 27.9741 186.432 25.1445C186.432 22.3913 185.834 20.9383 184.655 20.9383ZM200.203 31.3773H196.764L192.591 18.491H195.817L197.402 23.94C197.846 25.4886 198.252 26.9417 198.561 28.5477H198.619C198.947 26.999 199.353 25.4695 199.797 23.9973L201.459 18.491H204.589L200.203 31.3773ZM205.608 18.491H208.545V31.3773H205.608V18.491ZM210.712 31.3773V18.6631C211.62 18.5101 212.895 18.3954 214.692 18.3954C216.508 18.3954 217.803 18.7396 218.672 19.4278C219.522 20.0779 220.063 21.1486 220.063 22.4104C220.063 23.6723 219.658 24.7621 218.865 25.4695C217.861 26.3872 216.373 26.827 214.634 26.827C214.248 26.827 213.9 26.8078 213.629 26.7505V31.3773H210.712ZM213.629 20.7088V24.5135C213.881 24.5709 214.17 24.59 214.615 24.59C216.18 24.59 217.146 23.8061 217.146 22.506C217.146 21.3206 216.315 20.6132 214.827 20.6132C214.248 20.6132 213.842 20.6515 213.629 20.7088ZM235.949 23.9973V30.7846C235.041 31.0905 233.322 31.5112 231.602 31.5112C229.226 31.5112 227.506 30.9185 226.308 29.7904C225.13 28.6624 224.473 26.9799 224.473 25.0871C224.492 20.8044 227.641 18.3572 231.911 18.3572C233.592 18.3572 234.887 18.6822 235.524 18.969L234.906 21.3206C234.191 20.9956 233.322 20.7662 231.892 20.7662C229.438 20.7662 227.564 22.1236 227.564 24.9342C227.564 27.6108 229.264 29.1595 231.679 29.1595C232.336 29.1595 232.877 29.083 233.109 28.9874V26.2725H231.1V23.9973H235.949ZM237.875 18.491H240.812V31.3773H237.875V18.491ZM242.998 31.3773V18.491H250.939V20.8809H245.934V23.8253H250.61V26.196H245.934V31.3773H242.998ZM255.312 31.3773V20.9383H251.796V18.491H261.804V20.9383H258.249V31.3773H255.312Z" fill="#111111"/>
</g>
<g filter="url(#filter3_d_102_771)">
<path d="M111.143 40.1594C113.81 40.1594 115.265 42.135 115.265 44.5186C115.265 47.3482 113.552 49.0434 111.002 49.0434C108.439 49.0434 106.919 47.1188 106.919 44.6588C106.919 42.084 108.593 40.1594 111.143 40.1594ZM111.105 41.7017C109.765 41.7017 108.992 42.9508 108.992 44.6205C108.992 46.3158 109.791 47.5011 111.105 47.5011C112.432 47.5011 113.192 46.252 113.192 44.5823C113.192 43.0273 112.457 41.7017 111.105 41.7017ZM116.537 48.9032V44.6588C116.537 43.8812 116.511 43.2312 116.485 42.6704H118.186L118.276 43.5371H118.314C118.572 43.1292 119.203 42.5302 120.259 42.5302C121.548 42.5302 122.514 43.3841 122.514 45.2196V48.9032H120.556V45.449C120.556 44.646 120.272 44.0979 119.564 44.0979C119.023 44.0979 118.701 44.4676 118.559 44.8245C118.508 44.9519 118.495 45.1304 118.495 45.3088V48.9032H116.537ZM124.084 48.9032V39.8535H126.042V48.9032H124.084ZM126.923 42.6704H129.1L130.04 45.7422C130.143 46.0991 130.272 46.5707 130.349 46.9021H130.401C130.478 46.5579 130.581 46.0991 130.671 45.7294L131.457 42.6704H133.544L132.075 46.7746C131.174 49.2601 130.568 50.2416 129.86 50.8661C129.19 51.4524 128.469 51.6691 127.979 51.7201L127.554 50.0886C127.799 50.0376 128.108 49.9229 128.404 49.7572C128.7 49.6042 129.035 49.2856 129.216 48.9797C129.28 48.8777 129.319 48.7758 129.319 48.6993C129.319 48.6228 129.306 48.5336 129.241 48.3806L126.923 42.6704ZM141.55 46.6981H139.064L138.446 48.9032H136.424L139.064 40.3123H141.64L144.345 48.9032H142.22L141.55 46.6981ZM139.348 45.2451H141.267L140.726 43.4224C140.571 42.9125 140.417 42.2752 140.288 41.7654H140.262C140.133 42.2752 140.004 42.9253 139.863 43.4224L139.348 45.2451ZM144.358 42.6704H146.484L147.334 45.5637C147.488 46.0991 147.591 46.5834 147.694 47.0805H147.733C147.836 46.5707 147.939 46.0991 148.081 45.5637L148.892 42.6704H150.953L148.609 48.9032H146.651L144.358 42.6704ZM157.013 45.2196V47.3992C157.013 47.9855 157.039 48.5591 157.116 48.9032H155.351L155.235 48.2787H155.197C154.784 48.7758 154.14 49.0434 153.393 49.0434C152.118 49.0434 151.358 48.1257 151.358 47.1315C151.358 45.5127 152.827 44.748 155.055 44.748V44.6715C155.055 44.3274 154.875 43.8558 153.908 43.8558C153.264 43.8558 152.582 44.0724 152.17 44.3274L151.809 43.0782C152.247 42.8361 153.11 42.5174 154.256 42.5174C156.356 42.5174 157.013 43.741 157.013 45.2196ZM155.119 46.6344V45.9589C154.089 45.9589 153.29 46.201 153.29 46.9403C153.29 47.4374 153.625 47.6796 154.063 47.6796C154.54 47.6796 154.952 47.3609 155.081 46.9658C155.106 46.8638 155.119 46.7491 155.119 46.6344ZM160.533 48.9032H158.575V42.6704H160.533V48.9032ZM159.567 39.9682C160.198 39.9682 160.585 40.3888 160.598 40.9369C160.598 41.4722 160.198 41.9056 159.541 41.9056C158.923 41.9056 158.524 41.4722 158.524 40.9369C158.524 40.3888 158.936 39.9682 159.567 39.9682ZM162.11 48.9032V39.8535H164.068V48.9032H162.11ZM170.9 45.2196V47.3992C170.9 47.9855 170.926 48.5591 171.003 48.9032H169.238L169.122 48.2787H169.084C168.671 48.7758 168.027 49.0434 167.28 49.0434C166.005 49.0434 165.245 48.1257 165.245 47.1315C165.245 45.5127 166.714 44.748 168.942 44.748V44.6715C168.942 44.3274 168.762 43.8558 167.796 43.8558C167.152 43.8558 166.469 44.0724 166.057 44.3274L165.696 43.0782C166.134 42.8361 166.997 42.5174 168.143 42.5174C170.243 42.5174 170.9 43.741 170.9 45.2196ZM169.006 46.6344V45.9589C167.976 45.9589 167.177 46.201 167.177 46.9403C167.177 47.4374 167.512 47.6796 167.95 47.6796C168.427 47.6796 168.839 47.3609 168.968 46.9658C168.993 46.8638 169.006 46.7491 169.006 46.6344ZM172.462 47.0423V39.8535H174.42V43.4096H174.446C174.82 42.8743 175.477 42.5302 176.352 42.5302C177.86 42.5302 178.954 43.7665 178.941 45.6784C178.941 47.9218 177.512 49.0434 176.069 49.0434C175.335 49.0434 174.614 48.7758 174.176 48.0365H174.15L174.073 48.9032H172.411C172.437 48.4953 172.462 47.7433 172.462 47.0423ZM174.42 45.3343V46.252C174.42 46.3795 174.433 46.4942 174.459 46.5962C174.588 47.106 175.039 47.5139 175.605 47.5139C176.443 47.5139 176.958 46.8766 176.958 45.7549C176.958 44.7862 176.52 44.0215 175.605 44.0215C175.077 44.0215 174.588 44.4166 174.459 44.9774C174.433 45.0921 174.42 45.2068 174.42 45.3343ZM180.161 48.9032V39.8535H182.119V48.9032H180.161ZM189.273 46.405H185.215C185.267 47.208 186.078 47.5904 186.993 47.5904C187.663 47.5904 188.204 47.5011 188.732 47.3227L188.989 48.6355C188.345 48.9032 187.56 49.0307 186.709 49.0307C184.571 49.0307 183.347 47.807 183.347 45.8569C183.347 44.2764 184.339 42.5302 186.529 42.5302C188.564 42.5302 189.337 44.0979 189.337 45.6402C189.337 45.9716 189.298 46.2648 189.273 46.405ZM185.202 45.0794H187.521C187.521 44.6078 187.315 43.8175 186.413 43.8175C185.589 43.8175 185.254 44.5695 185.202 45.0794ZM194.366 48.9032V41.9438H192.022V40.3123H198.694V41.9438H196.324V48.9032H194.366ZM201.641 42.5174C203.56 42.5174 204.848 43.8303 204.848 45.7167C204.848 47.9982 203.212 49.0434 201.525 49.0434C199.683 49.0434 198.266 47.8453 198.266 45.8314C198.266 43.8048 199.605 42.5174 201.641 42.5174ZM201.576 43.9067C200.649 43.9067 200.288 44.8627 200.288 45.7804C200.288 46.8511 200.739 47.6541 201.576 47.6541C202.349 47.6541 202.826 46.9021 202.826 45.7677C202.826 44.85 202.465 43.9067 201.576 43.9067ZM209.913 48.9032V41.9438H207.569V40.3123H214.241V41.9438H211.871V48.9032H209.913ZM215.067 48.9032V39.8535H217.025V43.4224H217.051C217.257 43.142 217.515 42.9253 217.824 42.7723C218.12 42.6194 218.481 42.5302 218.841 42.5302C220.091 42.5302 221.044 43.3841 221.044 45.2706V48.9032H219.086V45.4745C219.086 44.6588 218.803 44.0979 218.068 44.0979C217.553 44.0979 217.231 44.4293 217.09 44.7862C217.038 44.9009 217.025 45.0666 217.025 45.2068V48.9032H215.067ZM228.179 46.405H224.122C224.173 47.208 224.985 47.5904 225.899 47.5904C226.569 47.5904 227.11 47.5011 227.638 47.3227L227.896 48.6355C227.252 48.9032 226.466 49.0307 225.616 49.0307C223.478 49.0307 222.254 47.807 222.254 45.8569C222.254 44.2764 223.246 42.5302 225.436 42.5302C227.471 42.5302 228.244 44.0979 228.244 45.6402C228.244 45.9716 228.205 46.2648 228.179 46.405ZM224.109 45.0794H226.427C226.427 44.6078 226.221 43.8175 225.32 43.8175C224.495 43.8175 224.16 44.5695 224.109 45.0794ZM232.101 48.9032V40.3123H237.395V41.9056H234.059V43.8685H237.176V45.449H234.059V48.9032H232.101ZM240.523 48.9032H238.565V42.6704H240.523V48.9032ZM239.556 39.9682C240.188 39.9682 240.574 40.3888 240.587 40.9369C240.587 41.4722 240.188 41.9056 239.531 41.9056C238.912 41.9056 238.513 41.4722 238.513 40.9369C238.513 40.3888 238.925 39.9682 239.556 39.9682ZM242.099 48.9032V44.7225C242.099 43.8048 242.086 43.2057 242.048 42.6704H243.722L243.799 43.8175H243.851C244.173 42.8998 244.933 42.5174 245.551 42.5174C245.732 42.5174 245.822 42.5302 245.963 42.5556V44.3783C245.809 44.3529 245.654 44.3274 245.435 44.3274C244.714 44.3274 244.225 44.7097 244.096 45.3088C244.07 45.4363 244.057 45.5892 244.057 45.7422V48.9032H242.099ZM246.632 48.5973L246.979 47.2207C247.34 47.4374 248.087 47.6796 248.667 47.6796C249.259 47.6796 249.504 47.4884 249.504 47.1697C249.504 46.8383 249.311 46.6854 248.59 46.4432C247.276 46.0098 246.773 45.3088 246.786 44.5695C246.786 43.3969 247.791 42.5174 249.349 42.5174C250.084 42.5174 250.728 42.6959 251.114 42.887L250.779 44.2254C250.496 44.0724 249.942 43.8685 249.414 43.8685C248.937 43.8685 248.667 44.0597 248.667 44.3656C248.667 44.6715 248.912 44.8245 249.684 45.0921C250.882 45.5 251.372 46.1118 251.385 47.0168C251.385 48.1894 250.47 49.0434 248.667 49.0434C247.842 49.0434 247.108 48.8522 246.632 48.5973ZM252.848 41.5105L254.767 40.9879V42.6704H256.171V44.0979H254.767V46.354C254.767 47.106 254.96 47.4502 255.54 47.4502C255.81 47.4502 255.939 47.4374 256.12 47.3992L256.132 48.865C255.888 48.9542 255.411 49.0307 254.87 49.0307C254.239 49.0307 253.711 48.814 253.389 48.4953C253.028 48.1257 252.848 47.5266 252.848 46.6472V44.0979H252.011V42.6704H252.848V41.5105Z" fill="#111111"/>
</g>
<g filter="url(#filter4_d_102_771)">
<path d="M124.726 80.3696H108.026V77.0716L111.032 74.383C116.213 69.7944 118.713 67.1774 118.749 64.4529C118.749 62.553 117.626 61.0473 114.909 61.0473C112.88 61.0473 111.105 62.0511 109.873 62.9473L108.315 59.0757C110.054 57.7493 112.844 56.6738 115.996 56.6738C121.357 56.6738 124.255 59.7568 124.255 63.9511C124.255 67.8944 121.43 71.0132 117.988 74.0245L115.814 75.8169V75.8886H124.726V80.3696ZM135.982 56.6738C142.249 56.6738 144.749 62.2303 144.749 68.6114C144.749 75.781 141.814 80.764 135.837 80.764C129.751 80.764 127.07 75.3509 127.034 68.7548C127.034 61.9794 129.895 56.6738 135.982 56.6738ZM135.909 60.7964C133.917 60.7964 132.54 63.3058 132.54 68.7548C132.54 74.0962 133.844 76.6414 135.945 76.6414C138.083 76.6414 139.242 73.9886 139.242 68.6831C139.242 63.5209 138.119 60.7964 135.909 60.7964ZM155.352 56.6738C161.619 56.6738 164.119 62.2303 164.119 68.6114C164.119 75.781 161.185 80.764 155.207 80.764C149.121 80.764 146.44 75.3509 146.404 68.7548C146.404 61.9794 149.266 56.6738 155.352 56.6738ZM155.279 60.7964C153.287 60.7964 151.91 63.3058 151.91 68.7548C151.91 74.0962 153.215 76.6414 155.316 76.6414C157.453 76.6414 158.612 73.9886 158.612 68.6831C158.612 63.5209 157.489 60.7964 155.279 60.7964Z" fill="#111111"/>
</g>
<g filter="url(#filter5_d_102_771)">
<path d="M169.909 68.4208L171.519 59.9829C172.086 59.8427 172.949 59.7662 173.786 59.7662C174.572 59.7662 175.46 59.8937 176.092 60.327C176.684 60.7222 177.032 61.334 177.032 62.1625C177.032 63.2332 176.53 64.0617 175.86 64.5715C175.151 65.1196 174.134 65.3745 173.077 65.3745C172.768 65.3745 172.511 65.3363 172.318 65.3235L171.725 68.4208H169.909ZM173.09 61.283L172.601 63.8195C172.794 63.8577 173 63.8832 173.322 63.8832C174.43 63.8832 175.164 63.1822 175.164 62.3154C175.164 61.4997 174.559 61.232 173.85 61.232C173.503 61.232 173.245 61.2575 173.09 61.283ZM181.77 66.7383L181.899 68.0639C181.165 68.4336 180.25 68.561 179.542 68.561C177.751 68.561 176.824 67.5541 176.824 65.9226C176.824 64.0234 178.215 62.0478 180.495 62.0478C181.77 62.0478 182.685 62.7616 182.685 63.9215C182.685 65.502 181.126 66.0755 178.588 66.0118C178.601 66.1903 178.666 66.4707 178.795 66.6491C179.039 66.9678 179.464 67.1335 180.005 67.1335C180.688 67.1335 181.268 66.9805 181.77 66.7383ZM180.946 63.9087C180.946 63.6028 180.688 63.3861 180.263 63.3861C179.4 63.3861 178.898 64.0999 178.769 64.6735C180.224 64.6862 180.946 64.495 180.946 63.9087ZM186.857 62.035C188.544 62.035 189.523 63.1822 189.523 64.6097C189.523 66.8913 187.939 68.561 185.762 68.561C184.165 68.561 183.096 67.5286 183.096 65.9736C183.096 63.8195 184.615 62.035 186.857 62.035ZM186.612 63.4371C185.543 63.4371 185.015 64.9794 185.015 65.9481C185.015 66.6746 185.375 67.159 186.032 67.159C187.024 67.159 187.604 65.6804 187.604 64.6225C187.604 64.0489 187.346 63.4371 186.612 63.4371ZM191.154 70.9446H189.299L190.522 64.597C190.664 63.8577 190.806 62.7743 190.883 62.137H192.545L192.429 63.093H192.455C192.97 62.4174 193.717 62.0478 194.477 62.0478C195.842 62.0478 196.512 63.1312 196.512 64.4186C196.512 66.5726 195.057 68.561 192.854 68.561C192.352 68.561 191.914 68.4336 191.695 68.3061H191.656L191.154 70.9446ZM192.184 65.5275L191.952 66.8786C192.158 67.057 192.429 67.1717 192.802 67.1717C193.794 67.1717 194.567 65.7824 194.567 64.5588C194.567 64.0617 194.348 63.5391 193.756 63.5391C193.06 63.5391 192.416 64.3038 192.184 65.5275ZM198.644 68.4208H196.789L198.541 59.3711H200.396L198.644 68.4208ZM205.08 66.7383L205.209 68.0639C204.474 68.4336 203.56 68.561 202.851 68.561C201.061 68.561 200.134 67.5541 200.134 65.9226C200.134 64.0234 201.525 62.0478 203.805 62.0478C205.08 62.0478 205.994 62.7616 205.994 63.9215C205.994 65.502 204.436 66.0755 201.898 66.0118C201.911 66.1903 201.976 66.4707 202.104 66.6491C202.349 66.9678 202.774 67.1335 203.315 67.1335C203.998 67.1335 204.577 66.9805 205.08 66.7383ZM204.255 63.9087C204.255 63.6028 203.998 63.3861 203.573 63.3861C202.71 63.3861 202.207 64.0999 202.079 64.6735C203.534 64.6862 204.255 64.495 204.255 63.9087ZM211.656 68.4208H209.595L209.26 59.83H211.141V63.6538C211.141 64.6862 211.115 65.6677 211.089 66.4324H211.115C211.424 65.5912 211.734 64.7245 212.146 63.6793L213.691 59.83H215.727L215.701 63.6665C215.701 64.699 215.662 65.553 215.624 66.3942H215.649C215.946 65.502 216.268 64.5715 216.602 63.6538L218.11 59.83H220.055L216.229 68.4208H214.22L214.155 64.8902C214.142 63.8832 214.168 63.0165 214.232 62.0478H214.207C213.885 62.9655 213.588 63.8832 213.15 64.9411L211.656 68.4208ZM220.972 68.4208H219.117L220.856 59.3711H222.711L222.003 62.991H222.029C222.557 62.4174 223.214 62.0478 224.038 62.0478C225.017 62.0478 225.622 62.6596 225.622 63.7303C225.622 64.0234 225.571 64.495 225.506 64.8519L224.824 68.4208H222.969L223.626 65.0049C223.677 64.7627 223.703 64.495 223.703 64.2401C223.703 63.8195 223.536 63.5263 223.072 63.5263C222.415 63.5263 221.758 64.3166 221.526 65.5657L220.972 68.4208ZM230.098 62.035C231.786 62.035 232.765 63.1822 232.765 64.6097C232.765 66.8913 231.18 68.561 229.003 68.561C227.406 68.561 226.337 67.5286 226.337 65.9736C226.337 63.8195 227.857 62.035 230.098 62.035ZM229.854 63.4371C228.784 63.4371 228.256 64.9794 228.256 65.9481C228.256 66.6746 228.617 67.159 229.274 67.159C230.266 67.159 230.845 65.6804 230.845 64.6225C230.845 64.0489 230.588 63.4371 229.854 63.4371ZM176.259 78.6496L176.414 80.1281C175.95 80.3321 175.177 80.4978 174.134 80.4978C171.828 80.4978 170.295 79.1084 170.295 76.8524C170.295 74.9277 171.171 73.4237 172.485 72.5569C173.387 71.9451 174.443 71.652 175.667 71.652C176.607 71.652 177.315 71.8687 177.573 72.0089L177.058 73.5002C176.813 73.3854 176.233 73.2197 175.486 73.2197C174.739 73.2197 174.031 73.4492 173.503 73.8825C172.781 74.4816 172.305 75.4503 172.305 76.6484C172.305 78.0123 173.09 78.93 174.61 78.93C175.229 78.93 175.834 78.828 176.259 78.6496ZM178.938 80.3703H177.083L178.835 71.3206H180.69L178.938 80.3703ZM186.07 80.3703H184.37C184.382 80.0007 184.421 79.5801 184.447 79.1339H184.421C183.841 80.1664 183.03 80.5105 182.296 80.5105C181.162 80.5105 180.389 79.6438 180.389 78.3437C180.389 76.2406 181.806 73.9973 184.898 73.9973C185.658 73.9973 186.456 74.1375 186.984 74.3032L186.327 77.5662C186.173 78.3692 186.044 79.5928 186.07 80.3703ZM184.614 76.8779L184.898 75.4376C184.756 75.4121 184.588 75.3866 184.395 75.3866C183.197 75.3866 182.321 76.8396 182.321 77.9995C182.321 78.6114 182.566 79.032 183.081 79.032C183.635 79.032 184.318 78.4074 184.614 76.8779ZM189.027 80.3703H187.172L188.37 74.1375H190.225L189.027 80.3703ZM189.542 73.3599H189.517C189.001 73.3599 188.628 73.0031 188.628 72.4677C188.628 71.8432 189.13 71.4225 189.697 71.4225C190.251 71.4225 190.637 71.7794 190.637 72.3275C190.637 72.9776 190.135 73.3599 189.542 73.3599ZM192.114 80.3703H190.324L191.109 76.1641C191.251 75.3738 191.354 74.6983 191.431 74.1375H193.016L192.9 75.1444H192.926C193.505 74.3414 194.278 73.9845 195.09 73.9845C196.094 73.9845 196.532 74.6218 196.584 75.1699C197.15 74.3669 197.936 73.9845 198.761 73.9845C199.727 73.9845 200.293 74.6091 200.293 75.667C200.293 75.9219 200.242 76.419 200.19 76.7377L199.508 80.3703H197.704L198.336 76.9544C198.387 76.7122 198.426 76.4445 198.426 76.2023C198.426 75.769 198.232 75.4631 197.807 75.4631C197.189 75.4631 196.571 76.2788 196.326 77.5407L195.798 80.3703H194.008L194.664 76.9416C194.703 76.6867 194.742 76.4445 194.742 76.2278C194.742 75.7945 194.6 75.4631 194.149 75.4631C193.518 75.4631 192.848 76.3298 192.629 77.5662L192.114 80.3703ZM204.565 71.7794H206.42L204.771 80.3703H202.917L204.565 71.7794ZM207.854 72.9521L209.76 72.4422L209.438 74.1247H210.791L210.507 75.5268H209.168L208.743 77.6426C208.691 77.8848 208.64 78.2162 208.64 78.4329C208.64 78.7388 208.769 78.9555 209.181 78.9555C209.335 78.9555 209.528 78.9555 209.683 78.93L209.477 80.3703C209.232 80.4595 208.769 80.5105 208.382 80.5105C207.261 80.5105 206.733 79.9497 206.733 79.1594C206.733 78.828 206.772 78.4839 206.875 77.9995L207.352 75.5268H206.553L206.811 74.1247H207.622L207.854 72.9521ZM211.42 80.4978C210.802 80.4978 210.389 80.0517 210.389 79.4398C210.389 78.7388 210.905 78.1397 211.639 78.1397C212.27 78.1397 212.708 78.5859 212.708 79.2359C212.708 79.9752 212.18 80.4978 211.42 80.4978Z" fill="#111111"/>
</g>
</g>
<defs>
<filter id="filter0_d_102_771" x="-2" y="-1.58984" width="291.377" height="110.359" filterUnits="userSpaceOnUse" color-interpolation-filters="sRGB">
<feFlood flood-opacity="0" result="BackgroundImageFix"/>
<feColorMatrix in="SourceAlpha" type="matrix" values="0 0 0 0 0 0 0 0 0 0 0 0 0 0 0 0 0 0 127 0" result="hardAlpha"/>
<feOffset dy="1"/>
<feGaussianBlur stdDeviation="2"/>
<feComposite in2="hardAlpha" operator="out"/>
<feColorMatrix type="matrix" values="0 0 0 0 0 0 0 0 0 0 0 0 0 0 0 0 0 0 0.25 0"/>
<feBlend mode="normal" in2="BackgroundImageFix" result="effect1_dropShadow_102_771"/>
<feBlend mode="normal" in="SourceGraphic" in2="effect1_dropShadow_102_771" result="shape"/>
</filter>
<filter id="filter1_d_102_771" x="8.69214" y="8.05469" width="86.8696" height="90.0703" filterUnits="userSpaceOnUse" color-interpolation-filters="sRGB">
<feFlood flood-opacity="0" result="BackgroundImageFix"/>
<feColorMatrix in="SourceAlpha" type="matrix" values="0 0 0 0 0 0 0 0 0 0 0 0 0 0 0 0 0 0 127 0" result="hardAlpha"/>
<feOffset dy="1"/>
<feGaussianBlur stdDeviation="2"/>
<feComposite in2="hardAlpha" operator="out"/>
<feColorMatrix type="matrix" values="0 0 0 0 0 0 0 0 0 0 0 0 0 0 0 0 0 0 0.25 0"/>
<feBlend mode="normal" in2="BackgroundImageFix" result="effect1_dropShadow_102_771"/>
<feBlend mode="normal" in="SourceGraphic" in2="effect1_dropShadow_102_771" result="shape"/>
</filter>
<filter id="filter2_d_102_771" x="106.758" y="17.4395" width="156.046" height="16.6016" filterUnits="userSpaceOnUse" color-interpolation-filters="sRGB">
<feFlood flood-opacity="0" result="BackgroundImageFix"/>
<feColorMatrix in="SourceAlpha" type="matrix" values="0 0 0 0 0 0 0 0 0 0 0 0 0 0 0 0 0 0 127 0" result="hardAlpha"/>
<feOffset dx="1" dy="1"/>
<feComposite in2="hardAlpha" operator="out"/>
<feColorMatrix type="matrix" values="0 0 0 0 1 0 0 0 0 1 0 0 0 0 1 0 0 0 1 0"/>
<feBlend mode="normal" in2="BackgroundImageFix" result="effect1_dropShadow_102_771"/>
<feBlend mode="normal" in="SourceGraphic" in2="effect1_dropShadow_102_771" result="shape"/>
</filter>
<filter id="filter3_d_102_771" x="106.919" y="39.8535" width="150.253" height="12.8672" filterUnits="userSpaceOnUse" color-interpolation-filters="sRGB">
<feFlood flood-opacity="0" result="BackgroundImageFix"/>
<feColorMatrix in="SourceAlpha" type="matrix" values="0 0 0 0 0 0 0 0 0 0 0 0 0 0 0 0 0 0 127 0" result="hardAlpha"/>
<feOffset dx="1" dy="1"/>
<feComposite in2="hardAlpha" operator="out"/>
<feColorMatrix type="matrix" values="0 0 0 0 1 0 0 0 0 1 0 0 0 0 1 0 0 0 1 0"/>
<feBlend mode="normal" in2="BackgroundImageFix" result="effect1_dropShadow_102_771"/>
<feBlend mode="normal" in="SourceGraphic" in2="effect1_dropShadow_102_771" result="shape"/>
</filter>
<filter id="filter4_d_102_771" x="108.026" y="56.6738" width="57.0934" height="25.0898" filterUnits="userSpaceOnUse" color-interpolation-filters="sRGB">
<feFlood flood-opacity="0" result="BackgroundImageFix"/>
<feColorMatrix in="SourceAlpha" type="matrix" values="0 0 0 0 0 0 0 0 0 0 0 0 0 0 0 0 0 0 127 0" result="hardAlpha"/>
<feOffset dx="1" dy="1"/>
<feComposite in2="hardAlpha" operator="out"/>
<feColorMatrix type="matrix" values="0 0 0 0 1 0 0 0 0 1 0 0 0 0 1 0 0 0 1 0"/>
<feBlend mode="normal" in2="BackgroundImageFix" result="effect1_dropShadow_102_771"/>
<feBlend mode="normal" in="SourceGraphic" in2="effect1_dropShadow_102_771" result="shape"/>
</filter>
<filter id="filter5_d_102_771" x="169.909" y="59.3711" width="63.8558" height="22.1387" filterUnits="userSpaceOnUse" color-interpolation-filters="sRGB">
<feFlood flood-opacity="0" result="BackgroundImageFix"/>
<feColorMatrix in="SourceAlpha" type="matrix" values="0 0 0 0 0 0 0 0 0 0 0 0 0 0 0 0 0 0 127 0" result="hardAlpha"/>
<feOffset dx="1" dy="1"/>
<feComposite in2="hardAlpha" operator="out"/>
<feColorMatrix type="matrix" values="0 0 0 0 1 0 0 0 0 1 0 0 0 0 1 0 0 0 1 0"/>
<feBlend mode="normal" in2="BackgroundImageFix" result="effect1_dropShadow_102_771"/>
<feBlend mode="normal" in="SourceGraphic" in2="effect1_dropShadow_102_771" result="shape"/>
</filter>
<linearGradient id="paint0_linear_102_771" x1="-45.9004" y1="52.752" x2="144.735" y2="263.791" gradientUnits="userSpaceOnUse">
<stop stop-color="#A57E33"/>
<stop offset="0.275" stop-color="#EFD379"/>
<stop offset="0.5" stop-color="#FDED9F"/>
<stop offset="0.75" stop-color="#C79D4C"/>
<stop offset="1" stop-color="#94580B"/>
</linearGradient>
<linearGradient id="paint1_linear_102_771" x1="19.048" y1="10.6846" x2="13.8493" y2="87.802" gradientUnits="userSpaceOnUse">
<stop stop-color="#A57E33"/>
<stop offset="0.10972" stop-color="#EFD379"/>
<stop offset="0.5" stop-color="#FDED9F"/>
<stop offset="0.75" stop-color="#C79D4C"/>
<stop offset="1" stop-color="#94580B"/>
</linearGradient>
<linearGradient id="paint2_linear_102_771" x1="17.5098" y1="15.7414" x2="3.98276" y2="80.0948" gradientUnits="userSpaceOnUse">
<stop stop-color="#A57E33"/>
<stop offset="0.10972" stop-color="#EFD379"/>
<stop offset="0.5" stop-color="#FDED9F"/>
<stop offset="0.75" stop-color="#C79D4C"/>
<stop offset="1" stop-color="#94580B"/>
</linearGradient>
<linearGradient id="paint3_linear_102_771" x1="54.629" y1="26.9084" x2="50.7965" y2="48.2294" gradientUnits="userSpaceOnUse">
<stop stop-color="#A57E33"/>
<stop offset="0.275" stop-color="#EFD379"/>
<stop offset="0.5" stop-color="#FDED9F"/>
<stop offset="0.75" stop-color="#C79D4C"/>
<stop offset="1" stop-color="#94580B"/>
</linearGradient>
<linearGradient id="paint4_linear_102_771" x1="55.1458" y1="47.1109" x2="51.3378" y2="68.5407" gradientUnits="userSpaceOnUse">
<stop stop-color="#A57E33"/>
<stop offset="0.275" stop-color="#EFD379"/>
<stop offset="0.5" stop-color="#FDED9F"/>
<stop offset="0.75" stop-color="#C79D4C"/>
<stop offset="1" stop-color="#94580B"/>
</linearGradient>
<linearGradient id="paint5_linear_102_771" x1="nan" y1="nan" x2="nan" y2="nan" gradientUnits="userSpaceOnUse">
<stop stop-color="#856220"/>
<stop offset="0.275" stop-color="#F4E683"/>
<stop offset="0.5" stop-color="#BF923D"/>
<stop offset="0.75" stop-color="#4E341B"/>
<stop offset="1" stop-color="#F1EA82"/>
</linearGradient>
<clipPath id="clip0_102_771">
<rect width="287" height="104.359" fill="white" transform="translate(0 0.410156)"/>
</clipPath>
</defs>
</svg>
