<svg width="713" height="262" viewBox="0 0 713 262" fill="none" xmlns="http://www.w3.org/2000/svg">
<g filter="url(#filter0_d_101_460)">
<rect x="4.5" y="3.15039" width="704" height="253" rx="12" fill="url(#paint0_linear_101_460)" shape-rendering="crispEdges"/>
<rect x="15" y="16.6504" width="682" height="226" rx="7.5" stroke="url(#paint1_linear_101_460)"/>
</g>
<g filter="url(#filter1_d_101_460)">
<rect x="34.5" y="29.7461" width="190" height="200" rx="12" fill="#111111" shape-rendering="crispEdges"/>
<rect x="36.5" y="31.7461" width="186" height="196" rx="10" stroke="url(#paint2_linear_101_460)" stroke-width="4" shape-rendering="crispEdges"/>
<path d="M106.928 101.402H112.816L113.776 94.1701H107.952L106.928 101.402ZM104.368 118.746H98.6083L100.272 107.29H95.0243V101.402H101.232L102.256 94.1701H96.8802V88.2821H103.152L104.816 77.1461H110.448L108.848 88.2821H114.736L116.336 77.1461H122.032L120.432 88.2821H125.552V94.1701H119.472L118.512 101.402H123.76V107.29H117.488L115.888 118.746H110.128L111.792 107.29H105.968L104.368 118.746ZM142.948 118.746V85.7861H142.82L134.884 89.5621L133.284 82.2661L144.356 77.1461H152.356V118.746H142.948Z" fill="url(#paint3_linear_101_460)"/>
<path d="M105.73 172.746H94.3375L80.5135 129.61H91.2015L96.4495 147.85C97.9215 153.034 99.2655 157.898 100.29 163.274H100.482C101.57 158.09 102.914 152.97 104.386 148.042L109.89 129.61H120.258L105.73 172.746ZM124.913 129.61H134.641V172.746H124.913V129.61ZM143.099 172.746V130.186C146.107 129.674 150.331 129.29 156.283 129.29C162.299 129.29 166.587 130.442 169.467 132.746C172.283 134.922 174.075 138.506 174.075 142.73C174.075 146.954 172.731 150.602 170.107 152.97C166.779 156.042 161.851 157.514 156.091 157.514C154.811 157.514 153.659 157.45 152.763 157.258V172.746H143.099ZM152.763 137.034V149.77C153.595 149.962 154.555 150.026 156.027 150.026C161.211 150.026 164.411 147.402 164.411 143.05C164.411 139.082 161.659 136.714 156.731 136.714C154.811 136.714 153.467 136.842 152.763 137.034Z" fill="url(#paint4_linear_101_460)"/>
<path d="M105.73 172.746H94.3375L80.5135 129.61H91.2015L96.4495 147.85C97.9215 153.034 99.2655 157.898 100.29 163.274H100.482C101.57 158.09 102.914 152.97 104.386 148.042L109.89 129.61H120.258L105.73 172.746ZM124.913 129.61H134.641V172.746H124.913V129.61ZM143.099 172.746V130.186C146.107 129.674 150.331 129.29 156.283 129.29C162.299 129.29 166.587 130.442 169.467 132.746C172.283 134.922 174.075 138.506 174.075 142.73C174.075 146.954 172.731 150.602 170.107 152.97C166.779 156.042 161.851 157.514 156.091 157.514C154.811 157.514 153.659 157.45 152.763 157.258V172.746H143.099ZM152.763 137.034V149.77C153.595 149.962 154.555 150.026 156.027 150.026C161.211 150.026 164.411 147.402 164.411 143.05C164.411 139.082 161.659 136.714 156.731 136.714C154.811 136.714 153.467 136.842 152.763 137.034Z" fill="black" fill-opacity="0.2"/>
</g>
<line x1="245" y1="36.7461" x2="245" y2="222.746" stroke="url(#paint5_linear_101_460)" stroke-dasharray="2 2"/>
<g filter="url(#filter2_d_101_460)">
<path d="M273.956 77.7461V51.5381H265.22V45.3941H290.084V51.5381H281.252V77.7461H273.956ZM293.053 45.3941H300.349V57.8261H312.397V45.3941H319.693V77.7461H312.397V64.2101H300.349V77.7461H293.053V45.3941ZM325.187 45.3941H332.483V77.7461H325.187V45.3941ZM336.618 76.2101L338.106 70.2101C340.026 71.2181 343.098 72.2261 346.218 72.2261C349.578 72.2261 351.354 70.8341 351.354 68.7221C351.354 66.7061 349.818 65.5541 345.93 64.2101C340.554 62.2901 337.002 59.3141 337.002 54.6101C337.002 49.0901 341.658 44.9141 349.242 44.9141C352.938 44.9141 355.578 45.6341 357.498 46.5461L355.866 52.4021C354.618 51.7781 352.266 50.8661 349.146 50.8661C345.978 50.8661 344.442 52.3541 344.442 53.9861C344.442 56.0501 346.218 56.9621 350.442 58.5461C356.154 60.6581 358.794 63.6341 358.794 68.1941C358.794 73.6181 354.666 78.2261 345.786 78.2261C342.09 78.2261 338.442 77.2181 336.618 76.2101ZM383.955 81.9221H379.203V77.3621C375.987 77.2181 372.867 76.3061 371.043 75.2981L372.483 69.6821C374.499 70.7861 377.331 71.7941 380.451 71.7941C383.235 71.7941 385.107 70.6901 385.107 68.8181C385.107 66.9941 383.571 65.8421 379.971 64.6421C374.835 62.9141 371.331 60.5141 371.331 55.8581C371.331 51.5861 374.307 48.2741 379.443 47.3141V42.7541H384.147V46.9781C387.315 47.0741 389.475 47.7941 391.155 48.5621L389.715 53.9861C388.515 53.4101 386.259 52.3061 382.803 52.3061C379.683 52.3061 378.675 53.6981 378.675 55.0421C378.675 56.5781 380.355 57.6341 384.483 59.1221C390.195 61.1381 392.451 63.7781 392.451 68.1461C392.451 72.4181 389.475 76.0661 383.955 76.9781V81.9221ZM416.916 46.5461V52.5461H404.82L404.148 57.3461C404.82 57.2501 405.396 57.2501 406.164 57.2501C409.14 57.2501 412.212 57.9221 414.372 59.5061C416.724 61.0901 418.164 63.6821 418.164 67.3301C418.164 73.1381 413.172 78.2741 404.772 78.2741C400.98 78.2741 397.812 77.4101 396.084 76.4981L397.428 71.0261C398.772 71.6981 401.604 72.5621 404.436 72.5621C407.46 72.5621 410.676 71.1221 410.676 67.8101C410.676 64.5941 408.132 62.6261 401.892 62.6261C400.164 62.6261 398.964 62.7221 397.716 62.9141L399.732 46.5461H416.916ZM433.173 46.0181C441.477 46.0181 444.789 53.4581 444.789 62.0021C444.789 71.6021 440.901 78.2741 432.981 78.2741C424.917 78.2741 421.365 71.0261 421.317 62.1941C421.317 53.1221 425.109 46.0181 433.173 46.0181ZM433.077 51.5381C430.437 51.5381 428.613 54.8981 428.613 62.1941C428.613 69.3461 430.341 72.7541 433.125 72.7541C435.957 72.7541 437.493 69.2021 437.493 62.0981C437.493 55.1861 436.005 51.5381 433.077 51.5381ZM458.838 46.0181C467.142 46.0181 470.454 53.4581 470.454 62.0021C470.454 71.6021 466.566 78.2741 458.646 78.2741C450.582 78.2741 447.03 71.0261 446.982 62.1941C446.982 53.1221 450.774 46.0181 458.838 46.0181ZM458.742 51.5381C456.102 51.5381 454.278 54.8981 454.278 62.1941C454.278 69.3461 456.006 72.7541 458.79 72.7541C461.622 72.7541 463.158 69.2021 463.158 62.0981C463.158 55.1861 461.67 51.5381 458.742 51.5381ZM497.369 77.7461H488.825L478.457 45.3941H486.473L490.409 59.0741C491.513 62.9621 492.521 66.6101 493.289 70.6421H493.433C494.249 66.7541 495.257 62.9141 496.361 59.2181L500.489 45.3941H508.265L497.369 77.7461ZM510.797 45.3941H518.093V77.7461H510.797V45.3941ZM523.476 77.7461V45.8261C525.732 45.4421 528.9 45.1541 533.364 45.1541C537.876 45.1541 541.092 46.0181 543.252 47.7461C545.364 49.3781 546.708 52.0661 546.708 55.2341C546.708 58.4021 545.7 61.1381 543.732 62.9141C541.236 65.2181 537.54 66.3221 533.22 66.3221C532.26 66.3221 531.396 66.2741 530.724 66.1301V77.7461H523.476ZM530.724 50.9621V60.5141C531.348 60.6581 532.068 60.7061 533.172 60.7061C537.06 60.7061 539.46 58.7381 539.46 55.4741C539.46 52.4981 537.396 50.7221 533.7 50.7221C532.26 50.7221 531.252 50.8181 530.724 50.9621ZM586.174 59.2181V76.2581C583.918 77.0261 579.646 78.0821 575.374 78.0821C569.47 78.0821 565.198 76.5941 562.222 73.7621C559.294 70.9301 557.662 66.7061 557.662 61.9541C557.71 51.2021 565.534 45.0581 576.142 45.0581C580.318 45.0581 583.534 45.8741 585.118 46.5941L583.582 52.4981C581.806 51.6821 579.646 51.1061 576.094 51.1061C569.998 51.1061 565.342 54.5141 565.342 61.5701C565.342 68.2901 569.566 72.1781 575.566 72.1781C577.198 72.1781 578.542 71.9861 579.118 71.7461V64.9301H574.126V59.2181H586.174ZM590.957 45.3941H598.253V77.7461H590.957V45.3941ZM603.684 77.7461V45.3941H623.412V51.3941H610.98V58.7861H622.596V64.7381H610.98V77.7461H603.684ZM634.277 77.7461V51.5381H625.541V45.3941H650.405V51.5381H641.573V77.7461H634.277Z" fill="#111111"/>
</g>
<g filter="url(#filter3_d_101_460)">
<path d="M276.116 99.7941C282.74 99.7941 286.356 104.754 286.356 110.738C286.356 117.842 282.1 122.098 275.764 122.098C269.396 122.098 265.62 117.266 265.62 111.09C265.62 104.626 269.78 99.7941 276.116 99.7941ZM276.02 103.666C272.692 103.666 270.772 106.802 270.772 110.994C270.772 115.25 272.756 118.226 276.02 118.226C279.316 118.226 281.204 115.09 281.204 110.898C281.204 106.994 279.38 103.666 276.02 103.666ZM289.515 121.746V111.09C289.515 109.138 289.451 107.506 289.387 106.098H293.611L293.835 108.274H293.931C294.571 107.25 296.139 105.746 298.763 105.746C301.963 105.746 304.363 107.89 304.363 112.498V121.746H299.499V113.074C299.499 111.058 298.795 109.682 297.035 109.682C295.691 109.682 294.891 110.61 294.539 111.506C294.411 111.826 294.379 112.274 294.379 112.722V121.746H289.515ZM308.265 121.746V99.0261H313.129V121.746H308.265ZM315.317 106.098H320.725L323.061 113.81C323.317 114.706 323.637 115.89 323.829 116.722H323.957C324.149 115.858 324.405 114.706 324.629 113.778L326.581 106.098H331.765L328.117 116.402C325.877 122.642 324.373 125.106 322.613 126.674C320.949 128.146 319.157 128.69 317.941 128.818L316.885 124.722C317.493 124.594 318.261 124.306 318.997 123.89C319.733 123.506 320.565 122.706 321.013 121.938C321.173 121.682 321.269 121.426 321.269 121.234C321.269 121.042 321.237 120.818 321.077 120.434L315.317 106.098ZM351.656 116.21H345.48L343.944 121.746H338.92L345.48 100.178H351.88L358.6 121.746H353.32L351.656 116.21ZM346.184 112.562H350.952L349.608 107.986C349.224 106.706 348.84 105.106 348.52 103.826H348.456C348.136 105.106 347.816 106.738 347.464 107.986L346.184 112.562ZM358.632 106.098H363.912L366.024 113.362C366.408 114.706 366.664 115.922 366.92 117.17H367.016C367.272 115.89 367.528 114.706 367.88 113.362L369.896 106.098H375.016L369.192 121.746H364.328L358.632 106.098ZM390.07 112.498V117.97C390.07 119.442 390.134 120.882 390.326 121.746H385.942L385.654 120.178H385.558C384.534 121.426 382.934 122.098 381.078 122.098C377.91 122.098 376.022 119.794 376.022 117.298C376.022 113.234 379.67 111.314 385.206 111.314V111.122C385.206 110.258 384.758 109.074 382.358 109.074C380.758 109.074 379.062 109.618 378.038 110.258L377.142 107.122C378.23 106.514 380.374 105.714 383.222 105.714C388.438 105.714 390.07 108.786 390.07 112.498ZM385.366 116.05V114.354C382.806 114.354 380.822 114.962 380.822 116.818C380.822 118.066 381.654 118.674 382.742 118.674C383.926 118.674 384.95 117.874 385.27 116.882C385.334 116.626 385.366 116.338 385.366 116.05ZM398.816 121.746H393.952V106.098H398.816V121.746ZM396.416 99.3141C397.984 99.3141 398.944 100.37 398.976 101.746C398.976 103.09 397.984 104.178 396.352 104.178C394.816 104.178 393.824 103.09 393.824 101.746C393.824 100.37 394.848 99.3141 396.416 99.3141ZM402.733 121.746V99.0261H407.597V121.746H402.733ZM424.57 112.498V117.97C424.57 119.442 424.634 120.882 424.826 121.746H420.442L420.154 120.178H420.058C419.034 121.426 417.434 122.098 415.578 122.098C412.41 122.098 410.522 119.794 410.522 117.298C410.522 113.234 414.17 111.314 419.706 111.314V111.122C419.706 110.258 419.258 109.074 416.858 109.074C415.258 109.074 413.562 109.618 412.538 110.258L411.642 107.122C412.73 106.514 414.874 105.714 417.722 105.714C422.938 105.714 424.57 108.786 424.57 112.498ZM419.866 116.05V114.354C417.306 114.354 415.322 114.962 415.322 116.818C415.322 118.066 416.154 118.674 417.242 118.674C418.426 118.674 419.45 117.874 419.77 116.882C419.834 116.626 419.866 116.338 419.866 116.05ZM428.452 117.074V99.0261H433.316V107.954H433.38C434.308 106.61 435.94 105.746 438.116 105.746C441.86 105.746 444.58 108.85 444.548 113.65C444.548 119.282 440.996 122.098 437.412 122.098C435.588 122.098 433.796 121.426 432.708 119.57H432.644L432.452 121.746H428.324C428.388 120.722 428.452 118.834 428.452 117.074ZM433.316 112.786V115.09C433.316 115.41 433.348 115.698 433.412 115.954C433.732 117.234 434.852 118.258 436.26 118.258C438.34 118.258 439.62 116.658 439.62 113.842C439.62 111.41 438.532 109.49 436.26 109.49C434.948 109.49 433.732 110.482 433.412 111.89C433.348 112.178 433.316 112.466 433.316 112.786ZM447.577 121.746V99.0261H452.441V121.746H447.577ZM470.214 115.474H460.134C460.262 117.49 462.278 118.45 464.55 118.45C466.214 118.45 467.558 118.226 468.87 117.778L469.51 121.074C467.91 121.746 465.958 122.066 463.845 122.066C458.534 122.066 455.493 118.994 455.493 114.098C455.493 110.13 457.958 105.746 463.398 105.746C468.454 105.746 470.374 109.682 470.374 113.554C470.374 114.386 470.278 115.122 470.214 115.474ZM460.102 112.146H465.862C465.862 110.962 465.35 108.978 463.11 108.978C461.062 108.978 460.23 110.866 460.102 112.146ZM482.867 121.746V104.274H477.043V100.178H493.619V104.274H487.731V121.746H482.867ZM500.94 105.714C505.708 105.714 508.908 109.01 508.908 113.746C508.908 119.474 504.844 122.098 500.652 122.098C496.076 122.098 492.556 119.09 492.556 114.034C492.556 108.946 495.884 105.714 500.94 105.714ZM500.78 109.202C498.476 109.202 497.58 111.602 497.58 113.906C497.58 116.594 498.7 118.61 500.78 118.61C502.7 118.61 503.884 116.722 503.884 113.874C503.884 111.57 502.988 109.202 500.78 109.202ZM521.492 121.746V104.274H515.668V100.178H532.244V104.274H526.356V121.746H521.492ZM534.296 121.746V99.0261H539.16V107.986H539.224C539.736 107.282 540.376 106.738 541.144 106.354C541.88 105.97 542.776 105.746 543.672 105.746C546.776 105.746 549.144 107.89 549.144 112.626V121.746H544.28V113.138C544.28 111.09 543.576 109.682 541.752 109.682C540.472 109.682 539.672 110.514 539.32 111.41C539.192 111.698 539.16 112.114 539.16 112.466V121.746H534.296ZM566.87 115.474H556.79C556.918 117.49 558.934 118.45 561.206 118.45C562.87 118.45 564.214 118.226 565.526 117.778L566.166 121.074C564.566 121.746 562.614 122.066 560.502 122.066C555.19 122.066 552.15 118.994 552.15 114.098C552.15 110.13 554.614 105.746 560.054 105.746C565.11 105.746 567.03 109.682 567.03 113.554C567.03 114.386 566.934 115.122 566.87 115.474ZM556.758 112.146H562.518C562.518 110.962 562.006 108.978 559.766 108.978C557.718 108.978 556.886 110.866 556.758 112.146ZM576.613 121.746V100.178H589.765V104.178H581.477V109.106H589.221V113.074H581.477V121.746H576.613ZM597.535 121.746H592.671V106.098H597.535V121.746ZM595.135 99.3141C596.703 99.3141 597.663 100.37 597.695 101.746C597.695 103.09 596.703 104.178 595.071 104.178C593.535 104.178 592.543 103.09 592.543 101.746C592.543 100.37 593.567 99.3141 595.135 99.3141ZM601.452 121.746V111.25C601.452 108.946 601.42 107.442 601.324 106.098H605.484L605.676 108.978H605.804C606.604 106.674 608.492 105.714 610.028 105.714C610.476 105.714 610.7 105.746 611.052 105.81V110.386C610.668 110.322 610.284 110.258 609.74 110.258C607.948 110.258 606.732 111.218 606.412 112.722C606.348 113.042 606.316 113.426 606.316 113.81V121.746H601.452ZM612.712 120.978L613.576 117.522C614.472 118.066 616.328 118.674 617.768 118.674C619.24 118.674 619.848 118.194 619.848 117.394C619.848 116.562 619.368 116.178 617.576 115.57C614.312 114.482 613.064 112.722 613.096 110.866C613.096 107.922 615.592 105.714 619.464 105.714C621.288 105.714 622.888 106.162 623.848 106.642L623.016 110.002C622.312 109.618 620.936 109.106 619.624 109.106C618.44 109.106 617.768 109.586 617.768 110.354C617.768 111.122 618.376 111.506 620.296 112.178C623.272 113.202 624.488 114.738 624.52 117.01C624.52 119.954 622.248 122.098 617.768 122.098C615.72 122.098 613.896 121.618 612.712 120.978ZM628.155 103.186L632.923 101.874V106.098H636.411V109.682H632.923V115.346C632.923 117.234 633.403 118.098 634.843 118.098C635.515 118.098 635.835 118.066 636.283 117.97L636.315 121.65C635.707 121.874 634.523 122.066 633.179 122.066C631.611 122.066 630.299 121.522 629.499 120.722C628.603 119.794 628.155 118.29 628.155 116.082V109.682H626.075V106.098H628.155V103.186Z" fill="#111111"/>
</g>
<g filter="url(#filter4_d_101_460)">
<path d="M309.86 200.746H268.37V192.466L275.84 185.716C288.71 174.196 294.92 167.626 295.01 160.786C295.01 156.016 292.22 152.236 285.47 152.236C280.43 152.236 276.02 154.756 272.96 157.006L269.09 147.286C273.41 143.956 280.34 141.256 288.17 141.256C301.49 141.256 308.69 148.996 308.69 159.526C308.69 169.426 301.67 177.256 293.12 184.816L287.72 189.316V189.496H309.86V200.746ZM337.822 141.256C353.392 141.256 359.602 155.206 359.602 171.226C359.602 189.226 352.312 201.736 337.462 201.736C322.342 201.736 315.682 188.146 315.592 171.586C315.592 154.576 322.702 141.256 337.822 141.256ZM337.642 151.606C332.692 151.606 329.272 157.906 329.272 171.586C329.272 184.996 332.512 191.386 337.732 191.386C343.042 191.386 345.922 184.726 345.922 171.406C345.922 158.446 343.132 151.606 337.642 151.606ZM385.944 141.256C401.514 141.256 407.724 155.206 407.724 171.226C407.724 189.226 400.434 201.736 385.584 201.736C370.464 201.736 363.804 188.146 363.714 171.586C363.714 154.576 370.824 141.256 385.944 141.256ZM385.764 151.606C380.814 151.606 377.394 157.906 377.394 171.586C377.394 184.996 380.634 191.386 385.854 191.386C391.164 191.386 394.044 184.726 394.044 171.406C394.044 158.446 391.254 151.606 385.764 151.606Z" fill="#111111"/>
</g>
<g filter="url(#filter5_d_101_460)">
<path d="M422.108 170.746L426.108 149.562C427.516 149.21 429.66 149.018 431.74 149.018C433.692 149.018 435.9 149.338 437.468 150.426C438.94 151.418 439.804 152.954 439.804 155.034C439.804 157.722 438.556 159.802 436.892 161.082C435.132 162.458 432.604 163.098 429.98 163.098C429.212 163.098 428.572 163.002 428.092 162.97L426.62 170.746H422.108ZM430.012 152.826L428.796 159.194C429.276 159.29 429.788 159.354 430.588 159.354C433.34 159.354 435.164 157.594 435.164 155.418C435.164 153.37 433.66 152.698 431.9 152.698C431.036 152.698 430.396 152.762 430.012 152.826ZM451.575 166.522L451.895 169.85C450.071 170.778 447.799 171.098 446.039 171.098C441.591 171.098 439.287 168.57 439.287 164.474C439.287 159.706 442.743 154.746 448.407 154.746C451.575 154.746 453.847 156.538 453.847 159.45C453.847 163.418 449.975 164.858 443.671 164.698C443.703 165.146 443.863 165.85 444.183 166.298C444.791 167.098 445.847 167.514 447.191 167.514C448.887 167.514 450.327 167.13 451.575 166.522ZM449.527 159.418C449.527 158.65 448.887 158.106 447.831 158.106C445.687 158.106 444.439 159.898 444.119 161.338C447.735 161.37 449.527 160.89 449.527 159.418ZM464.212 154.714C468.404 154.714 470.836 157.594 470.836 161.178C470.836 166.906 466.9 171.098 461.492 171.098C457.524 171.098 454.868 168.506 454.868 164.602C454.868 159.194 458.644 154.714 464.212 154.714ZM463.604 158.234C460.948 158.234 459.636 162.106 459.636 164.538C459.636 166.362 460.532 167.578 462.164 167.578C464.628 167.578 466.068 163.866 466.068 161.21C466.068 159.77 465.428 158.234 463.604 158.234ZM474.887 177.082H470.279L473.319 161.146C473.671 159.29 474.023 156.57 474.215 154.97H478.343L478.055 157.37H478.119C479.399 155.674 481.255 154.746 483.143 154.746C486.535 154.746 488.199 157.466 488.199 160.698C488.199 166.106 484.583 171.098 479.111 171.098C477.863 171.098 476.775 170.778 476.231 170.458H476.135L474.887 177.082ZM477.447 163.482L476.871 166.874C477.383 167.322 478.055 167.61 478.983 167.61C481.447 167.61 483.367 164.122 483.367 161.05C483.367 159.802 482.823 158.49 481.351 158.49C479.623 158.49 478.023 160.41 477.447 163.482ZM493.495 170.746H488.887L493.239 148.026H497.847L493.495 170.746ZM509.484 166.522L509.804 169.85C507.98 170.778 505.708 171.098 503.948 171.098C499.5 171.098 497.196 168.57 497.196 164.474C497.196 159.706 500.652 154.746 506.316 154.746C509.484 154.746 511.756 156.538 511.756 159.45C511.756 163.418 507.884 164.858 501.58 164.698C501.612 165.146 501.772 165.85 502.092 166.298C502.7 167.098 503.756 167.514 505.1 167.514C506.796 167.514 508.236 167.13 509.484 166.522ZM507.436 159.418C507.436 158.65 506.796 158.106 505.74 158.106C503.596 158.106 502.348 159.898 502.028 161.338C505.644 161.37 507.436 160.89 507.436 159.418ZM525.822 170.746H520.702L519.87 149.178H524.542V158.778C524.542 161.37 524.478 163.834 524.414 165.754H524.478C525.246 163.642 526.014 161.466 527.038 158.842L530.878 149.178H535.934L535.87 158.81C535.87 161.402 535.774 163.546 535.678 165.658H535.742C536.478 163.418 537.278 161.082 538.11 158.778L541.854 149.178H546.686L537.182 170.746H532.19L532.03 161.882C531.998 159.354 532.062 157.178 532.222 154.746H532.158C531.358 157.05 530.622 159.354 529.534 162.01L525.822 170.746ZM548.966 170.746H544.358L548.678 148.026H553.286L551.526 157.114H551.59C552.902 155.674 554.534 154.746 556.582 154.746C559.014 154.746 560.518 156.282 560.518 158.97C560.518 159.706 560.39 160.89 560.23 161.786L558.534 170.746H553.926L555.558 162.17C555.686 161.562 555.75 160.89 555.75 160.25C555.75 159.194 555.334 158.458 554.182 158.458C552.55 158.458 550.918 160.442 550.342 163.578L548.966 170.746ZM571.638 154.714C575.83 154.714 578.262 157.594 578.262 161.178C578.262 166.906 574.326 171.098 568.918 171.098C564.95 171.098 562.294 168.506 562.294 164.602C562.294 159.194 566.07 154.714 571.638 154.714ZM571.03 158.234C568.374 158.234 567.062 162.106 567.062 164.538C567.062 166.362 567.958 167.578 569.59 167.578C572.054 167.578 573.494 163.866 573.494 161.21C573.494 159.77 572.854 158.234 571.03 158.234ZM437.884 196.426L438.268 200.138C437.116 200.65 435.196 201.066 432.604 201.066C426.876 201.066 423.068 197.578 423.068 191.914C423.068 187.082 425.244 183.306 428.508 181.13C430.748 179.594 433.372 178.858 436.412 178.858C438.748 178.858 440.508 179.402 441.148 179.754L439.868 183.498C439.26 183.21 437.82 182.794 435.964 182.794C434.108 182.794 432.348 183.37 431.036 184.458C429.244 185.962 428.06 188.394 428.06 191.402C428.06 194.826 430.012 197.13 433.788 197.13C435.324 197.13 436.828 196.874 437.884 196.426ZM444.54 200.746H439.932L444.284 178.026H448.892L444.54 200.746ZM462.257 200.746H458.033C458.065 199.818 458.161 198.762 458.225 197.642H458.161C456.721 200.234 454.705 201.098 452.881 201.098C450.065 201.098 448.145 198.922 448.145 195.658C448.145 190.378 451.665 184.746 459.345 184.746C461.233 184.746 463.217 185.098 464.529 185.514L462.897 193.706C462.513 195.722 462.193 198.794 462.257 200.746ZM458.641 191.978L459.345 188.362C458.993 188.298 458.577 188.234 458.097 188.234C455.121 188.234 452.945 191.882 452.945 194.794C452.945 196.33 453.553 197.386 454.833 197.386C456.209 197.386 457.905 195.818 458.641 191.978ZM469.604 200.746H464.996L467.972 185.098H472.58L469.604 200.746ZM470.884 183.146H470.82C469.54 183.146 468.612 182.25 468.612 180.906C468.612 179.338 469.86 178.282 471.268 178.282C472.644 178.282 473.604 179.178 473.604 180.554C473.604 182.186 472.356 183.146 470.884 183.146ZM477.273 200.746H472.825L474.777 190.186C475.129 188.202 475.385 186.506 475.577 185.098H479.513L479.225 187.626H479.289C480.729 185.61 482.649 184.714 484.665 184.714C487.161 184.714 488.249 186.314 488.377 187.69C489.785 185.674 491.737 184.714 493.785 184.714C496.185 184.714 497.593 186.282 497.593 188.938C497.593 189.578 497.465 190.826 497.337 191.626L495.641 200.746H491.161L492.729 192.17C492.857 191.562 492.953 190.89 492.953 190.282C492.953 189.194 492.473 188.426 491.417 188.426C489.881 188.426 488.345 190.474 487.737 193.642L486.425 200.746H481.977L483.609 192.138C483.705 191.498 483.801 190.89 483.801 190.346C483.801 189.258 483.449 188.426 482.329 188.426C480.761 188.426 479.097 190.602 478.553 193.706L477.273 200.746ZM508.206 179.178H512.814L508.718 200.746H504.11L508.206 179.178ZM516.376 182.122L521.112 180.842L520.312 185.066H523.672L522.968 188.586H519.64L518.584 193.898C518.456 194.506 518.328 195.338 518.328 195.882C518.328 196.65 518.648 197.194 519.672 197.194C520.056 197.194 520.536 197.194 520.92 197.13L520.408 200.746C519.8 200.97 518.648 201.098 517.688 201.098C514.904 201.098 513.592 199.69 513.592 197.706C513.592 196.874 513.688 196.01 513.944 194.794L515.128 188.586H513.144L513.784 185.066H515.8L516.376 182.122ZM525.235 201.066C523.699 201.066 522.675 199.946 522.675 198.41C522.675 196.65 523.955 195.146 525.779 195.146C527.347 195.146 528.435 196.266 528.435 197.898C528.435 199.754 527.123 201.066 525.235 201.066Z" fill="#111111"/>
</g>
<defs>
<filter id="filter0_d_101_460" x="0.5" y="0.150391" width="712" height="261" filterUnits="userSpaceOnUse" color-interpolation-filters="sRGB">
<feFlood flood-opacity="0" result="BackgroundImageFix"/>
<feColorMatrix in="SourceAlpha" type="matrix" values="0 0 0 0 0 0 0 0 0 0 0 0 0 0 0 0 0 0 127 0" result="hardAlpha"/>
<feOffset dy="1"/>
<feGaussianBlur stdDeviation="2"/>
<feComposite in2="hardAlpha" operator="out"/>
<feColorMatrix type="matrix" values="0 0 0 0 0 0 0 0 0 0 0 0 0 0 0 0 0 0 0.25 0"/>
<feBlend mode="normal" in2="BackgroundImageFix" result="effect1_dropShadow_101_460"/>
<feBlend mode="normal" in="SourceGraphic" in2="effect1_dropShadow_101_460" result="shape"/>
</filter>
<filter id="filter1_d_101_460" x="30.5" y="26.7461" width="198" height="208" filterUnits="userSpaceOnUse" color-interpolation-filters="sRGB">
<feFlood flood-opacity="0" result="BackgroundImageFix"/>
<feColorMatrix in="SourceAlpha" type="matrix" values="0 0 0 0 0 0 0 0 0 0 0 0 0 0 0 0 0 0 127 0" result="hardAlpha"/>
<feOffset dy="1"/>
<feGaussianBlur stdDeviation="2"/>
<feComposite in2="hardAlpha" operator="out"/>
<feColorMatrix type="matrix" values="0 0 0 0 0 0 0 0 0 0 0 0 0 0 0 0 0 0 0.25 0"/>
<feBlend mode="normal" in2="BackgroundImageFix" result="effect1_dropShadow_101_460"/>
<feBlend mode="normal" in="SourceGraphic" in2="effect1_dropShadow_101_460" result="shape"/>
</filter>
<filter id="filter2_d_101_460" x="265.22" y="42.7539" width="386.185" height="40.168" filterUnits="userSpaceOnUse" color-interpolation-filters="sRGB">
<feFlood flood-opacity="0" result="BackgroundImageFix"/>
<feColorMatrix in="SourceAlpha" type="matrix" values="0 0 0 0 0 0 0 0 0 0 0 0 0 0 0 0 0 0 127 0" result="hardAlpha"/>
<feOffset dx="1" dy="1"/>
<feComposite in2="hardAlpha" operator="out"/>
<feColorMatrix type="matrix" values="0 0 0 0 1 0 0 0 0 1 0 0 0 0 1 0 0 0 1 0"/>
<feBlend mode="normal" in2="BackgroundImageFix" result="effect1_dropShadow_101_460"/>
<feBlend mode="normal" in="SourceGraphic" in2="effect1_dropShadow_101_460" result="shape"/>
</filter>
<filter id="filter3_d_101_460" x="265.62" y="99.0264" width="371.791" height="30.792" filterUnits="userSpaceOnUse" color-interpolation-filters="sRGB">
<feFlood flood-opacity="0" result="BackgroundImageFix"/>
<feColorMatrix in="SourceAlpha" type="matrix" values="0 0 0 0 0 0 0 0 0 0 0 0 0 0 0 0 0 0 127 0" result="hardAlpha"/>
<feOffset dx="1" dy="1"/>
<feComposite in2="hardAlpha" operator="out"/>
<feColorMatrix type="matrix" values="0 0 0 0 1 0 0 0 0 1 0 0 0 0 1 0 0 0 1 0"/>
<feBlend mode="normal" in2="BackgroundImageFix" result="effect1_dropShadow_101_460"/>
<feBlend mode="normal" in="SourceGraphic" in2="effect1_dropShadow_101_460" result="shape"/>
</filter>
<filter id="filter4_d_101_460" x="268.37" y="141.256" width="140.354" height="61.4805" filterUnits="userSpaceOnUse" color-interpolation-filters="sRGB">
<feFlood flood-opacity="0" result="BackgroundImageFix"/>
<feColorMatrix in="SourceAlpha" type="matrix" values="0 0 0 0 0 0 0 0 0 0 0 0 0 0 0 0 0 0 127 0" result="hardAlpha"/>
<feOffset dx="1" dy="1"/>
<feComposite in2="hardAlpha" operator="out"/>
<feColorMatrix type="matrix" values="0 0 0 0 1 0 0 0 0 1 0 0 0 0 1 0 0 0 1 0"/>
<feBlend mode="normal" in2="BackgroundImageFix" result="effect1_dropShadow_101_460"/>
<feBlend mode="normal" in="SourceGraphic" in2="effect1_dropShadow_101_460" result="shape"/>
</filter>
<filter id="filter5_d_101_460" x="422.108" y="148.026" width="157.154" height="54.0713" filterUnits="userSpaceOnUse" color-interpolation-filters="sRGB">
<feFlood flood-opacity="0" result="BackgroundImageFix"/>
<feColorMatrix in="SourceAlpha" type="matrix" values="0 0 0 0 0 0 0 0 0 0 0 0 0 0 0 0 0 0 127 0" result="hardAlpha"/>
<feOffset dx="1" dy="1"/>
<feComposite in2="hardAlpha" operator="out"/>
<feColorMatrix type="matrix" values="0 0 0 0 1 0 0 0 0 1 0 0 0 0 1 0 0 0 1 0"/>
<feBlend mode="normal" in2="BackgroundImageFix" result="effect1_dropShadow_101_460"/>
<feBlend mode="normal" in="SourceGraphic" in2="effect1_dropShadow_101_460" result="shape"/>
</filter>
<linearGradient id="paint0_linear_101_460" x1="-114.5" y1="130.052" x2="356.444" y2="654.062" gradientUnits="userSpaceOnUse">
<stop stop-color="#A57E33"/>
<stop offset="0.275" stop-color="#EFD379"/>
<stop offset="0.5" stop-color="#FDED9F"/>
<stop offset="0.75" stop-color="#C79D4C"/>
<stop offset="1" stop-color="#94580B"/>
</linearGradient>
<linearGradient id="paint1_linear_101_460" x1="46.8526" y1="26.0762" x2="34.0679" y2="216.696" gradientUnits="userSpaceOnUse">
<stop stop-color="#A57E33"/>
<stop offset="0.10972" stop-color="#EFD379"/>
<stop offset="0.5" stop-color="#FDED9F"/>
<stop offset="0.75" stop-color="#C79D4C"/>
<stop offset="1" stop-color="#94580B"/>
</linearGradient>
<linearGradient id="paint2_linear_101_460" x1="43.5" y1="38.4913" x2="9.2114" y2="199.91" gradientUnits="userSpaceOnUse">
<stop stop-color="#A57E33"/>
<stop offset="0.10972" stop-color="#EFD379"/>
<stop offset="0.5" stop-color="#FDED9F"/>
<stop offset="0.75" stop-color="#C79D4C"/>
<stop offset="1" stop-color="#94580B"/>
</linearGradient>
<linearGradient id="paint3_linear_101_460" x1="135.716" y1="66.5257" x2="125.999" y2="120.018" gradientUnits="userSpaceOnUse">
<stop stop-color="#A57E33"/>
<stop offset="0.275" stop-color="#EFD379"/>
<stop offset="0.5" stop-color="#FDED9F"/>
<stop offset="0.75" stop-color="#C79D4C"/>
<stop offset="1" stop-color="#94580B"/>
</linearGradient>
<linearGradient id="paint4_linear_101_460" x1="137" y1="117.246" x2="127.345" y2="171.012" gradientUnits="userSpaceOnUse">
<stop stop-color="#A57E33"/>
<stop offset="0.275" stop-color="#EFD379"/>
<stop offset="0.5" stop-color="#FDED9F"/>
<stop offset="0.75" stop-color="#C79D4C"/>
<stop offset="1" stop-color="#94580B"/>
</linearGradient>
<linearGradient id="paint5_linear_101_460" x1="244.325" y1="61.5461" x2="242.917" y2="61.5536" gradientUnits="userSpaceOnUse">
<stop stop-color="#856220"/>
<stop offset="0.275" stop-color="#F4E683"/>
<stop offset="0.5" stop-color="#BF923D"/>
<stop offset="0.75" stop-color="#4E341B"/>
<stop offset="1" stop-color="#F1EA82"/>
</linearGradient>
</defs>
</svg>
