<svg width="41" height="42" viewBox="0 0 41 42" fill="none" xmlns="http://www.w3.org/2000/svg">
<path d="M39.4041 25.5462C38.2789 24.3985 36.4479 24.3985 35.3226 25.5462L28.4151 32.5905C27.7541 33.2647 26.875 33.6365 25.9399 33.6365H24.9346C25.4045 33.0858 25.6602 32.3882 25.6567 31.6513C25.6485 30.0011 24.326 28.6579 22.7076 28.6579H12.1482C10.9406 28.6579 9.81534 29.2097 9.06077 30.1712L7.87553 31.6824C7.3152 32.3971 6.47928 32.8068 5.58234 32.8068H0.753418V33.844H5.58183C6.78944 33.844 7.91468 33.2922 8.66925 32.3307L9.855 30.8194C10.4153 30.1048 11.2513 29.6951 12.1482 29.6951H22.7076C23.7677 29.6951 24.6346 30.5747 24.6397 31.656C24.6423 32.1844 24.4424 32.6813 24.0774 33.0557C23.7123 33.4301 23.2257 33.6365 22.7076 33.6365H16.187V34.6738H25.9394C27.146 34.6738 28.2804 34.1946 29.1341 33.3243L36.0411 26.2795C36.7697 25.5363 37.956 25.5363 38.6846 26.2795C39.3782 26.9869 39.4153 28.1304 38.7696 28.8829L31.0154 37.9218C29.7325 39.417 27.8797 40.2748 25.9312 40.2748H0.753418V41.312H25.9312C28.1726 41.312 30.3046 40.3251 31.7807 38.6048L39.5348 29.566C40.5324 28.4037 40.4744 26.6379 39.4041 25.5462Z" fill="#233751"/>
<path d="M20.5837 25.2023H21.6006C21.6006 25.0188 21.6001 24.8243 21.5991 24.6194C21.5925 22.5097 21.5818 19.3218 22.2342 16.4295C22.9704 13.1633 24.3931 11.066 26.4641 10.1911C27.1104 10.2725 27.7938 10.1268 28.3739 9.7586C29.1758 9.24932 29.7493 8.33656 29.9075 7.31801L28.9032 7.15568C28.7904 7.88174 28.3917 8.52534 27.8365 8.87799C27.266 9.2405 26.5206 9.27369 25.9806 8.96097C25.4721 8.6664 25.0811 8.04147 24.9082 7.24592C24.593 5.79381 25.046 4.1664 26.0619 3.10013C27.0778 2.03335 28.6597 1.52511 30.092 1.80464C31.4502 2.06965 32.7564 3.02494 33.6762 4.42519C34.4216 5.55991 34.951 6.98558 35.342 8.9117C35.8825 11.5748 35.9242 13.8676 35.4696 15.9207C34.9372 18.3256 33.6442 20.3979 31.922 21.6058C30.6097 22.5263 29.1753 22.795 28.0851 22.3235C27.4251 22.0383 26.8221 21.4455 26.3873 20.6536C26.0995 20.1293 25.7736 19.3192 25.8565 18.435C25.9277 17.6747 26.3212 16.9912 26.8826 16.651C27.475 16.2921 28.2844 16.3196 28.8519 16.7184C29.4193 17.1167 29.7331 17.8785 29.6156 18.5709L30.6178 18.7477C30.8039 17.6529 30.3259 16.4938 29.429 15.8637C28.5321 15.2336 27.3 15.1916 26.3634 15.7589C26.2068 15.8538 26.0594 15.9653 25.9226 16.0914L25.9195 16.0883C23.7804 18.0673 23.8058 21.0296 23.8328 24.1662C23.8358 24.5053 23.8389 24.8564 23.8389 25.2023H24.8558C24.8558 24.8518 24.8528 24.4986 24.8497 24.1568C24.8375 22.7182 24.8258 21.3195 25.0374 20.0717C25.1487 20.4363 25.3033 20.8014 25.5006 21.1603C25.886 21.8614 26.5785 22.7981 27.689 23.2783C28.168 23.4852 28.6912 23.5869 29.2368 23.5869C30.2985 23.5869 31.442 23.2015 32.4991 22.4599C34.4293 21.1058 35.8738 18.8053 36.4621 16.1489C36.9492 13.9485 36.9091 11.5125 36.3386 8.70115C35.9201 6.63966 35.343 5.09731 34.5218 3.84745C33.4515 2.21849 31.9068 1.10244 30.2837 0.785569C28.4975 0.436543 26.6004 1.04643 25.3333 2.37719C24.0657 3.70743 23.5226 5.65897 23.9162 7.47048C24.1252 8.43251 24.5777 9.2042 25.2046 9.68029C23.2857 10.8555 21.956 13.0409 21.2442 16.1977C20.5659 19.2062 20.5766 22.4662 20.5837 24.6231C20.5832 24.8264 20.5837 25.0198 20.5837 25.2023Z" fill="#233751"/>
<path d="M30.5542 10.4307L31.1557 11.2672C31.5229 10.9924 31.9749 10.8207 32.429 10.7834L32.3471 9.74926C31.6988 9.80268 31.0785 10.0381 30.5542 10.4307Z" fill="#233751"/>
<path d="M30.5685 14.8441C31.0952 15.2097 31.7085 15.4384 32.3415 15.5059L32.4473 14.4743C31.9805 14.4245 31.5285 14.256 31.1405 13.9868L30.5685 14.8441Z" fill="#233751"/>
<path d="M7.38232 22.4599C8.43942 23.2015 9.58297 23.5869 10.6446 23.5869C11.1897 23.5869 11.7134 23.4852 12.1924 23.2783C13.3029 22.7986 13.9955 21.8614 14.3809 21.1603C14.5568 20.8398 14.6982 20.5151 14.806 20.1894C14.9478 21.278 14.9275 22.491 14.9051 23.7839C14.897 24.2471 14.8888 24.7252 14.8888 25.2023H15.9058C15.9058 24.7346 15.9139 24.2605 15.922 23.8026C15.9734 20.8159 16.0222 17.9947 13.9614 16.0883L13.9583 16.0914C13.8211 15.9653 13.6736 15.8538 13.5175 15.7589C12.5809 15.1916 11.3489 15.2336 10.4519 15.8637C9.555 16.4938 9.07704 17.6529 9.26263 18.7477L10.2648 18.5709C10.1474 17.8785 10.4616 17.1167 11.0285 16.7184C11.596 16.3201 12.4055 16.2921 12.9978 16.6509C13.5592 16.9912 13.9527 17.6747 14.0239 18.435C14.1068 19.3192 13.7809 20.1293 13.4931 20.6536C13.0578 21.4455 12.4548 22.0383 11.7953 22.3235C10.7052 22.7944 9.27077 22.5263 7.95841 21.6058C6.23674 20.3979 4.9437 18.3256 4.41083 15.9207C3.95626 13.8676 3.99795 11.5753 4.53846 8.9117C4.92947 6.98558 5.45878 5.55991 6.2042 4.42519C7.12402 3.02494 8.43027 2.06965 9.78839 1.80464C11.2202 1.52511 12.8026 2.03335 13.8185 3.10013C14.8344 4.16692 15.2875 5.79432 14.9722 7.24592C14.7993 8.04147 14.4088 8.6664 13.8999 8.96097C13.3604 9.27369 12.6145 9.23998 12.044 8.87799C11.4887 8.52534 11.0901 7.88122 10.9772 7.15568L9.97296 7.31801C10.1311 8.33708 10.7041 9.24932 11.5065 9.7586C12.0867 10.1268 12.7706 10.2725 13.4163 10.1911C15.4751 11.0582 16.8276 13.0492 17.5476 16.2718C18.1796 19.1014 18.1598 22.2815 18.1466 24.3861C18.1446 24.677 18.143 24.9503 18.143 25.2023H19.16C19.16 24.9524 19.1615 24.6817 19.1635 24.3928C19.1773 22.2406 19.1976 18.9878 18.5391 16.0411C17.8527 12.9688 16.5551 10.8358 14.6758 9.68029C15.3032 9.2042 15.7558 8.4325 15.9648 7.46996C16.3578 5.65897 15.8148 3.70743 14.5477 2.37667C13.2806 1.04591 11.3835 0.436542 9.59721 0.785049C7.97418 1.10192 6.42945 2.21798 5.35912 3.84694C4.53795 5.09679 3.96084 6.63914 3.54237 8.70063C2.97187 11.512 2.9317 13.9479 3.41881 16.1484C4.00761 18.8058 5.45166 21.1058 7.38232 22.4599Z" fill="#233751"/>
<path d="M7.30249 9.74926L7.22063 10.7834C7.67469 10.8207 8.12672 10.9924 8.49383 11.2672L9.09535 10.4307C8.57112 10.0381 7.95129 9.80268 7.30249 9.74926Z" fill="#233751"/>
<path d="M7.31469 15.5059C7.94824 15.4384 8.56146 15.2097 9.08772 14.8441L8.51569 13.9868C8.12773 14.256 7.6757 14.4251 7.20893 14.4743L7.31469 15.5059Z" fill="#233751"/>
</svg>
