<svg width="33" height="33" viewBox="0 0 33 33" fill="none" xmlns="http://www.w3.org/2000/svg">
<rect x="1.31445" y="0.572113" width="31" height="31" rx="15.5" stroke="white"/>
<path d="M11.528 12.5681C11.584 11.0701 12.074 9.91511 12.998 9.10311C13.922 8.29111 15.175 7.88511 16.757 7.88511C17.807 7.88511 18.703 8.06711 19.445 8.43111C20.201 8.79511 20.768 9.29211 21.146 9.92211C21.538 10.5521 21.734 11.2591 21.734 12.0431C21.734 12.9671 21.503 13.7231 21.041 14.3111C20.579 14.8851 20.04 15.2771 19.424 15.4871V15.5711C20.222 15.8371 20.852 16.2781 21.314 16.8941C21.776 17.5101 22.007 18.3011 22.007 19.2671C22.007 20.1351 21.804 20.9051 21.398 21.5771C21.006 22.2351 20.425 22.7531 19.655 23.1311C18.899 23.5091 17.996 23.6981 16.946 23.6981C15.266 23.6981 13.922 23.2851 12.914 22.4591C11.92 21.6331 11.395 20.3871 11.339 18.7211H14.825C14.839 19.3371 15.014 19.8271 15.35 20.1911C15.686 20.5411 16.176 20.7161 16.82 20.7161C17.366 20.7161 17.786 20.5621 18.08 20.2541C18.388 19.9321 18.542 19.5121 18.542 18.9941C18.542 18.3221 18.325 17.8391 17.891 17.5451C17.471 17.2371 16.792 17.0831 15.854 17.0831H15.182V14.1641H15.854C16.568 14.1641 17.142 14.0451 17.576 13.8071C18.024 13.5551 18.248 13.1141 18.248 12.4841C18.248 11.9801 18.108 11.5881 17.828 11.3081C17.548 11.0281 17.163 10.8881 16.673 10.8881C16.141 10.8881 15.742 11.0491 15.476 11.3711C15.224 11.6931 15.077 12.0921 15.035 12.5681H11.528Z" fill="white"/>
</svg>
