<svg width="49" height="34" viewBox="0 0 49 34" fill="none" xmlns="http://www.w3.org/2000/svg">
<path d="M37.5125 34C40.5053 34 43.319 32.8345 45.4353 30.7183C47.5516 28.602 48.717 25.7883 48.717 22.7955C48.717 21.2567 48.4619 19.8012 47.9586 18.4695C47.439 17.0948 46.6676 15.8856 45.6658 14.8755C43.5345 12.7267 40.4628 11.5909 36.7829 11.5909C36.7548 11.5909 36.7334 11.5893 36.7179 11.5873C36.6063 11.2837 36.7226 9.98158 38.0694 7.81172C39.4813 5.5369 41.6141 3.35046 43.9207 1.81311C44.2836 1.5712 44.4454 1.12028 44.319 0.702869C44.1927 0.28545 43.808 -4.29163e-07 43.3719 -4.67289e-07C41.4659 -6.33916e-07 37.2248 1.28822 33.3527 4.83725C30.1389 7.78292 26.308 13.1631 26.308 22.0658C26.308 25.4311 27.4689 28.4894 29.5768 30.6772C31.6413 32.82 34.4596 34 37.5125 34Z" fill="#233751"/>
<path d="M3.26886 30.6773C5.33328 32.82 8.15154 34 11.2045 34C14.1973 34 17.0111 32.8345 19.1273 30.7183C21.2436 28.602 22.4091 25.7883 22.4091 22.7955C22.4091 21.2567 22.1539 19.8012 21.6506 18.4695C21.131 17.0948 20.3596 15.8856 19.3578 14.8755C17.2265 12.7267 14.1548 11.5909 10.4749 11.5909C10.4468 11.5909 10.4254 11.5893 10.4099 11.5873C10.2983 11.2837 10.4146 9.98158 11.7614 7.81171C13.1734 5.53685 15.3061 3.35046 17.6127 1.8131C17.9756 1.57119 18.1374 1.12028 18.0111 0.702867C17.8847 0.285447 17.5 -2.72908e-06 17.0639 -2.76721e-06C15.1579 -2.93383e-06 10.9168 1.28822 7.04476 4.83725C3.83097 7.78292 -5.80777e-06 13.1631 -6.58608e-06 22.0658C4.27108e-05 25.4312 1.16095 28.4894 3.26886 30.6773Z" fill="#233751"/>
</svg>
