<svg width="49" height="34" viewBox="0 0 49 34" fill="none" xmlns="http://www.w3.org/2000/svg">
<path d="M11.2045 0C8.21172 0 5.39801 1.16546 3.28174 3.28169C1.16546 5.39796 0 8.21167 0 11.2045C0 12.7433 0.255172 14.1988 0.758487 15.5305C1.27808 16.9052 2.04948 18.1144 3.05126 19.1245C5.18253 21.2733 8.25422 22.4091 11.9341 22.4091C11.9622 22.4091 11.9836 22.4107 11.9991 22.4127C12.1108 22.7162 11.9945 24.0184 10.6477 26.1883C9.23571 28.4631 7.10296 30.6495 4.79633 32.1869C4.43344 32.4288 4.27164 32.8797 4.39802 33.2971C4.52434 33.7146 4.90905 34 5.34517 34C7.25115 34 11.4923 32.7118 15.3643 29.1627C18.5781 26.2171 22.4091 20.8369 22.4091 11.9342C22.4091 8.56886 21.2482 5.51063 19.1402 3.32276C17.0758 1.18001 14.2575 0 11.2045 0Z" fill="#233751"/>
<path d="M45.4482 3.32271C43.3838 1.18001 40.5655 0 37.5125 0C34.5197 0 31.7059 1.16546 29.5897 3.28169C27.4734 5.39796 26.308 8.21167 26.308 11.2045C26.308 12.7433 26.5631 14.1988 27.0665 15.5305C27.5861 16.9052 28.3575 18.1144 29.3592 19.1245C31.4905 21.2733 34.5622 22.4091 38.2421 22.4091C38.2703 22.4091 38.2916 22.4107 38.3071 22.4127C38.4187 22.7162 38.3025 24.0184 36.9557 26.1883C35.5437 28.4631 33.4109 30.6495 31.1043 32.1869C30.7414 32.4288 30.5796 32.8797 30.706 33.2971C30.8324 33.7146 31.2171 34 31.6531 34C33.5591 34 37.8002 32.7118 41.6723 29.1627C44.8861 26.2171 48.717 20.8369 48.717 11.9342C48.717 8.56882 47.5561 5.51058 45.4482 3.32271Z" fill="#233751"/>
</svg>
